<?xml version="1.0" encoding="UTF-8" standalone="no"?>
<!DOCTYPE svg PUBLIC "-//W3C//DTD SVG 1.1//EN"
 "http://www.w3.org/Graphics/SVG/1.1/DTD/svg11.dtd">
<!-- Generated by graphviz version 12.2.1 (20241206.2353)
 -->
<!-- Title: G Pages: 1 -->
<svg width="1564pt" height="2474pt"
 viewBox="0.00 0.00 1563.95 2473.51" xmlns="http://www.w3.org/2000/svg" xmlns:xlink="http://www.w3.org/1999/xlink">
<g id="graph0" class="graph" transform="scale(1 1) rotate(0) translate(21.6 2451.91)">
<title>G</title>
<polygon fill="#111111" stroke="none" points="-21.6,21.6 -21.6,-2451.91 1542.35,-2451.91 1542.35,21.6 -21.6,21.6"/>
<!-- ../io/writer.ts -->
<g id="node1" class="node">
<title>../io/writer.ts</title>
<path fill="none" stroke="#ff6c60" d="M80.08,-1183.18C80.08,-1183.18 7.92,-1183.18 7.92,-1183.18 3.96,-1183.18 0,-1179.22 0,-1175.26 0,-1175.26 0,-1167.35 0,-1167.35 0,-1163.39 3.96,-1159.43 7.92,-1159.43 7.92,-1159.43 80.08,-1159.43 80.08,-1159.43 84.04,-1159.43 88,-1163.39 88,-1167.35 88,-1167.35 88,-1175.26 88,-1175.26 88,-1179.22 84.04,-1183.18 80.08,-1183.18"/>
<text text-anchor="middle" x="44" y="-1165.88" font-family="Arial" font-size="14.00" fill="#ff6c60">../io/writer.ts</text>
</g>
<!-- ../oasContext.ts -->
<g id="node2" class="node">
<title>../oasContext.ts</title>
<path fill="none" stroke="#ff6c60" d="M351.33,-1266.18C351.33,-1266.18 257.42,-1266.18 257.42,-1266.18 253.46,-1266.18 249.5,-1262.22 249.5,-1258.26 249.5,-1258.26 249.5,-1250.35 249.5,-1250.35 249.5,-1246.39 253.46,-1242.43 257.42,-1242.43 257.42,-1242.43 351.33,-1242.43 351.33,-1242.43 355.29,-1242.43 359.25,-1246.39 359.25,-1250.35 359.25,-1250.35 359.25,-1258.26 359.25,-1258.26 359.25,-1262.22 355.29,-1266.18 351.33,-1266.18"/>
<text text-anchor="middle" x="304.38" y="-1248.88" font-family="Arial" font-size="14.00" fill="#ff6c60">../oasContext.ts</text>
</g>
<!-- ../io/writer.ts&#45;&gt;../oasContext.ts -->
<g id="edge1" class="edge">
<title>../io/writer.ts&#45;&gt;../oasContext.ts</title>
<path fill="none" stroke="#757575" d="M68.37,-1183.66C83.84,-1191.49 104.76,-1201.4 124,-1208.31 161.13,-1221.63 203.89,-1232.75 238.34,-1240.72"/>
<polygon fill="#757575" stroke="#757575" points="237.21,-1244.05 247.74,-1242.86 238.76,-1237.23 237.21,-1244.05"/>
</g>
<!-- ../oasGen.ts -->
<g id="node3" class="node">
<title>../oasGen.ts</title>
<path fill="none" stroke="#ff6c60" d="M205.58,-1199.18C205.58,-1199.18 131.92,-1199.18 131.92,-1199.18 127.96,-1199.18 124,-1195.22 124,-1191.26 124,-1191.26 124,-1183.35 124,-1183.35 124,-1179.39 127.96,-1175.43 131.92,-1175.43 131.92,-1175.43 205.58,-1175.43 205.58,-1175.43 209.54,-1175.43 213.5,-1179.39 213.5,-1183.35 213.5,-1183.35 213.5,-1191.26 213.5,-1191.26 213.5,-1195.22 209.54,-1199.18 205.58,-1199.18"/>
<text text-anchor="middle" x="168.75" y="-1181.88" font-family="Arial" font-size="14.00" fill="#ff6c60">../oasGen.ts</text>
</g>
<!-- ../io/writer.ts&#45;&gt;../oasGen.ts -->
<g id="edge2" class="edge">
<title>../io/writer.ts&#45;&gt;../oasGen.ts</title>
<path fill="none" stroke="#757575" d="M88.28,-1170.47C96.06,-1171.24 104.28,-1172.23 112.36,-1173.36"/>
<polygon fill="#757575" stroke="#757575" points="111.72,-1176.81 122.12,-1174.82 112.75,-1169.88 111.72,-1176.81"/>
</g>
<!-- circularRef.ts -->
<g id="node4" class="node">
<title>circularRef.ts</title>
<path fill="none" stroke="#ff6c60" d="M1162.83,-316.18C1162.83,-316.18 1083.92,-316.18 1083.92,-316.18 1079.96,-316.18 1076,-312.22 1076,-308.26 1076,-308.26 1076,-300.35 1076,-300.35 1076,-296.39 1079.96,-292.43 1083.92,-292.43 1083.92,-292.43 1162.83,-292.43 1162.83,-292.43 1166.79,-292.43 1170.75,-296.39 1170.75,-300.35 1170.75,-300.35 1170.75,-308.26 1170.75,-308.26 1170.75,-312.22 1166.79,-316.18 1162.83,-316.18"/>
<text text-anchor="middle" x="1123.38" y="-298.88" font-family="Arial" font-size="14.00" fill="#ff6c60">circularRef.ts</text>
</g>
<!-- ../io/writer.ts&#45;&gt;circularRef.ts -->
<g id="edge3" class="edge">
<title>../io/writer.ts&#45;&gt;circularRef.ts</title>
<path fill="none" stroke="#757575" d="M45.18,-1159.27C46.98,-1049.53 63.27,-228.13 124,-140.31 174.07,-67.9 215.34,-56.31 303.38,-56.31 303.38,-56.31 303.38,-56.31 523,-56.31 644.99,-56.31 993.23,-229.29 1094.46,-286.47"/>
<polygon fill="#757575" stroke="#757575" points="1092.53,-289.39 1102.94,-291.34 1096.01,-283.32 1092.53,-289.39"/>
</g>
<!-- comp.ts -->
<g id="node5" class="node">
<title>comp.ts</title>
<path fill="none" stroke="#ff6c60" d="M1147.46,-703.18C1147.46,-703.18 1099.29,-703.18 1099.29,-703.18 1095.33,-703.18 1091.38,-699.22 1091.38,-695.26 1091.38,-695.26 1091.38,-687.35 1091.38,-687.35 1091.38,-683.39 1095.33,-679.43 1099.29,-679.43 1099.29,-679.43 1147.46,-679.43 1147.46,-679.43 1151.42,-679.43 1155.38,-683.39 1155.38,-687.35 1155.38,-687.35 1155.38,-695.26 1155.38,-695.26 1155.38,-699.22 1151.42,-703.18 1147.46,-703.18"/>
<text text-anchor="middle" x="1123.38" y="-685.88" font-family="Arial" font-size="14.00" fill="#ff6c60">comp.ts</text>
</g>
<!-- ../io/writer.ts&#45;&gt;comp.ts -->
<g id="edge4" class="edge">
<title>../io/writer.ts&#45;&gt;comp.ts</title>
<path fill="none" stroke="#757575" d="M45.09,-1158.94C46.03,-1049.94 55.56,-259.07 124,-183.31 178.34,-123.16 222.31,-150.31 303.38,-150.31 303.38,-150.31 303.38,-150.31 523,-150.31 613.75,-150.31 646.2,-133.74 725.25,-178.31 939.12,-298.89 1079.08,-585.41 1113.88,-668.51"/>
<polygon fill="#757575" stroke="#757575" points="1110.59,-669.71 1117.6,-677.65 1117.07,-667.07 1110.59,-669.71"/>
</g>
<!-- get.ts -->
<g id="node6" class="node">
<title>get.ts</title>
<path fill="none" stroke="#ff6c60" d="M843.46,-2124.18C843.46,-2124.18 805.29,-2124.18 805.29,-2124.18 801.33,-2124.18 797.38,-2120.22 797.38,-2116.26 797.38,-2116.26 797.38,-2108.35 797.38,-2108.35 797.38,-2104.39 801.33,-2100.43 805.29,-2100.43 805.29,-2100.43 843.46,-2100.43 843.46,-2100.43 847.42,-2100.43 851.38,-2104.39 851.38,-2108.35 851.38,-2108.35 851.38,-2116.26 851.38,-2116.26 851.38,-2120.22 847.42,-2124.18 843.46,-2124.18"/>
<text text-anchor="middle" x="824.38" y="-2106.88" font-family="Arial" font-size="14.00" fill="#ff6c60">get.ts</text>
</g>
<!-- ../io/writer.ts&#45;&gt;get.ts -->
<g id="edge5" class="edge">
<title>../io/writer.ts&#45;&gt;get.ts</title>
<path fill="none" stroke="#757575" d="M45.01,-1183.41C45.28,-1274.79 50,-1853.16 124,-2009.31 171.96,-2110.52 191.37,-2186.31 303.38,-2186.31 303.38,-2186.31 303.38,-2186.31 523,-2186.31 620.94,-2186.31 730.57,-2144.8 786.38,-2123.68"/>
<polygon fill="#757575" stroke="#757575" points="787.59,-2126.96 795.71,-2120.15 785.12,-2120.41 787.59,-2126.96"/>
</g>
<!-- obj.ts -->
<g id="node7" class="node">
<title>obj.ts</title>
<path fill="none" stroke="#ff6c60" d="M678.21,-1564.18C678.21,-1564.18 640.04,-1564.18 640.04,-1564.18 636.08,-1564.18 632.12,-1560.22 632.12,-1556.26 632.12,-1556.26 632.12,-1548.35 632.12,-1548.35 632.12,-1544.39 636.08,-1540.43 640.04,-1540.43 640.04,-1540.43 678.21,-1540.43 678.21,-1540.43 682.17,-1540.43 686.12,-1544.39 686.12,-1548.35 686.12,-1548.35 686.12,-1556.26 686.12,-1556.26 686.12,-1560.22 682.17,-1564.18 678.21,-1564.18"/>
<text text-anchor="middle" x="659.12" y="-1546.88" font-family="Arial" font-size="14.00" fill="#ff6c60">obj.ts</text>
</g>
<!-- ../io/writer.ts&#45;&gt;obj.ts -->
<g id="edge6" class="edge">
<title>../io/writer.ts&#45;&gt;obj.ts</title>
<path fill="none" stroke="#757575" d="M47.76,-1183.48C65.78,-1268.81 170.05,-1770.31 303.38,-1770.31 303.38,-1770.31 303.38,-1770.31 424.12,-1770.31 537.94,-1770.31 617.34,-1630.24 646.16,-1574.52"/>
<polygon fill="#757575" stroke="#757575" points="649.12,-1576.41 650.55,-1565.91 642.89,-1573.22 649.12,-1576.41"/>
</g>
<!-- param/param.ts -->
<g id="node8" class="node">
<title>param/param.ts</title>
<path fill="none" stroke="#ff6c60" d="M1029.83,-2043.18C1029.83,-2043.18 933.67,-2043.18 933.67,-2043.18 929.71,-2043.18 925.75,-2039.22 925.75,-2035.26 925.75,-2035.26 925.75,-2027.35 925.75,-2027.35 925.75,-2023.39 929.71,-2019.43 933.67,-2019.43 933.67,-2019.43 1029.83,-2019.43 1029.83,-2019.43 1033.79,-2019.43 1037.75,-2023.39 1037.75,-2027.35 1037.75,-2027.35 1037.75,-2035.26 1037.75,-2035.26 1037.75,-2039.22 1033.79,-2043.18 1029.83,-2043.18"/>
<text text-anchor="middle" x="981.75" y="-2025.88" font-family="Arial" font-size="14.00" fill="#ff6c60">param/param.ts</text>
</g>
<!-- ../io/writer.ts&#45;&gt;param/param.ts -->
<g id="edge7" class="edge">
<title>../io/writer.ts&#45;&gt;param/param.ts</title>
<path fill="none" stroke="#757575" d="M44.85,-1183.35C43.61,-1300 37.35,-2222.45 124,-2303.31 251.41,-2422.2 758.98,-2242 887.5,-2124.31 912.32,-2101.58 900.05,-2079.68 922.37,-2052.02"/>
<polygon fill="#757575" stroke="#757575" points="924.84,-2054.51 929.04,-2044.78 919.69,-2049.77 924.84,-2054.51"/>
</g>
<!-- props/prop.ts -->
<g id="node9" class="node">
<title>props/prop.ts</title>
<path fill="none" stroke="#ff6c60" d="M1383.58,-1034.18C1383.58,-1034.18 1304.67,-1034.18 1304.67,-1034.18 1300.71,-1034.18 1296.75,-1030.22 1296.75,-1026.26 1296.75,-1026.26 1296.75,-1018.35 1296.75,-1018.35 1296.75,-1014.39 1300.71,-1010.43 1304.67,-1010.43 1304.67,-1010.43 1383.58,-1010.43 1383.58,-1010.43 1387.54,-1010.43 1391.5,-1014.39 1391.5,-1018.35 1391.5,-1018.35 1391.5,-1026.26 1391.5,-1026.26 1391.5,-1030.22 1387.54,-1034.18 1383.58,-1034.18"/>
<text text-anchor="middle" x="1344.12" y="-1016.88" font-family="Arial" font-size="14.00" fill="#ff6c60">props/prop.ts</text>
</g>
<!-- ../io/writer.ts&#45;&gt;props/prop.ts -->
<g id="edge8" class="edge">
<title>../io/writer.ts&#45;&gt;props/prop.ts</title>
<path fill="none" stroke="#757575" d="M45.06,-1159.16C45.79,-1044.19 53.89,-153.61 124,-62.31 175.37,4.6 219.02,-0.31 303.38,-0.31 303.38,-0.31 303.38,-0.31 523,-0.31 835.59,-0.31 979.7,-26.9 1170.75,-274.31 1262.43,-393.03 1327.4,-885.25 1340.63,-998.92"/>
<polygon fill="#757575" stroke="#757575" points="1337.12,-999.02 1341.73,-1008.56 1344.08,-998.23 1337.12,-999.02"/>
</g>
<!-- props/propArray.ts -->
<g id="node10" class="node">
<title>props/propArray.ts</title>
<path fill="none" stroke="#ff6c60" d="M879.58,-1082.18C879.58,-1082.18 769.17,-1082.18 769.17,-1082.18 765.21,-1082.18 761.25,-1078.22 761.25,-1074.26 761.25,-1074.26 761.25,-1066.35 761.25,-1066.35 761.25,-1062.39 765.21,-1058.43 769.17,-1058.43 769.17,-1058.43 879.58,-1058.43 879.58,-1058.43 883.54,-1058.43 887.5,-1062.39 887.5,-1066.35 887.5,-1066.35 887.5,-1074.26 887.5,-1074.26 887.5,-1078.22 883.54,-1082.18 879.58,-1082.18"/>
<text text-anchor="middle" x="824.38" y="-1064.88" font-family="Arial" font-size="14.00" fill="#ff6c60">props/propArray.ts</text>
</g>
<!-- ../io/writer.ts&#45;&gt;props/propArray.ts -->
<g id="edge9" class="edge">
<title>../io/writer.ts&#45;&gt;props/propArray.ts</title>
<path fill="none" stroke="#757575" d="M45.5,-1159.19C49.63,-1068.84 79.1,-506.12 124,-447.31 176.02,-379.15 217.63,-376.31 303.38,-376.31 303.38,-376.31 303.38,-376.31 424.12,-376.31 739.54,-376.31 810.18,-925.11 821.53,-1046.72"/>
<polygon fill="#757575" stroke="#757575" points="818.02,-1046.82 822.39,-1056.48 825,-1046.21 818.02,-1046.82"/>
</g>
<!-- props/propScalar.ts -->
<g id="node11" class="node">
<title>props/propScalar.ts</title>
<path fill="none" stroke="#ff6c60" d="M717.33,-1888.18C717.33,-1888.18 600.92,-1888.18 600.92,-1888.18 596.96,-1888.18 593,-1884.22 593,-1880.26 593,-1880.26 593,-1872.35 593,-1872.35 593,-1868.39 596.96,-1864.43 600.92,-1864.43 600.92,-1864.43 717.33,-1864.43 717.33,-1864.43 721.29,-1864.43 725.25,-1868.39 725.25,-1872.35 725.25,-1872.35 725.25,-1880.26 725.25,-1880.26 725.25,-1884.22 721.29,-1888.18 717.33,-1888.18"/>
<text text-anchor="middle" x="659.12" y="-1870.88" font-family="Arial" font-size="14.00" fill="#ff6c60">props/propScalar.ts</text>
</g>
<!-- ../io/writer.ts&#45;&gt;props/propScalar.ts -->
<g id="edge10" class="edge">
<title>../io/writer.ts&#45;&gt;props/propScalar.ts</title>
<path fill="none" stroke="#757575" d="M46.48,-1183.48C57.88,-1281.92 135.79,-1940.31 303.38,-1940.31 303.38,-1940.31 303.38,-1940.31 424.12,-1940.31 491.69,-1940.31 565.46,-1912.23 611.74,-1893.04"/>
<polygon fill="#757575" stroke="#757575" points="613.05,-1896.29 620.93,-1889.21 610.35,-1889.83 613.05,-1896.29"/>
</g>
<!-- type.ts -->
<g id="node12" class="node">
<title>type.ts</title>
<path fill="none" stroke="#ff6c60" d="M443.08,-1145.18C443.08,-1145.18 403.17,-1145.18 403.17,-1145.18 399.21,-1145.18 395.25,-1141.22 395.25,-1137.26 395.25,-1137.26 395.25,-1129.35 395.25,-1129.35 395.25,-1125.39 399.21,-1121.43 403.17,-1121.43 403.17,-1121.43 443.08,-1121.43 443.08,-1121.43 447.04,-1121.43 451,-1125.39 451,-1129.35 451,-1129.35 451,-1137.26 451,-1137.26 451,-1141.22 447.04,-1145.18 443.08,-1145.18"/>
<text text-anchor="middle" x="423.12" y="-1127.88" font-family="Arial" font-size="14.00" fill="#ff6c60">type.ts</text>
</g>
<!-- ../io/writer.ts&#45;&gt;type.ts -->
<g id="edge11" class="edge">
<title>../io/writer.ts&#45;&gt;type.ts</title>
<path fill="none" stroke="#757575" d="M88.26,-1162.45C162.52,-1151.89 313.05,-1136.8 383.78,-1132.89"/>
<polygon fill="#757575" stroke="#757575" points="383.89,-1136.39 393.71,-1132.4 383.55,-1129.4 383.89,-1136.39"/>
</g>
<!-- union.ts -->
<g id="node13" class="node">
<title>union.ts</title>
<path fill="none" stroke="#ff6c60" d="M1147.08,-996.18C1147.08,-996.18 1099.67,-996.18 1099.67,-996.18 1095.71,-996.18 1091.75,-992.22 1091.75,-988.26 1091.75,-988.26 1091.75,-980.35 1091.75,-980.35 1091.75,-976.39 1095.71,-972.43 1099.67,-972.43 1099.67,-972.43 1147.08,-972.43 1147.08,-972.43 1151.04,-972.43 1155,-976.39 1155,-980.35 1155,-980.35 1155,-988.26 1155,-988.26 1155,-992.22 1151.04,-996.18 1147.08,-996.18"/>
<text text-anchor="middle" x="1123.38" y="-978.88" font-family="Arial" font-size="14.00" fill="#ff6c60">union.ts</text>
</g>
<!-- ../io/writer.ts&#45;&gt;union.ts -->
<g id="edge12" class="edge">
<title>../io/writer.ts&#45;&gt;union.ts</title>
<path fill="none" stroke="#757575" d="M45.37,-1159.11C48.61,-1063.67 73.14,-442.62 124,-379.31 176.56,-313.88 219.45,-320.31 303.38,-320.31 303.38,-320.31 303.38,-320.31 424.12,-320.31 804.97,-320.31 1063.44,-845.03 1113.5,-961.63"/>
<polygon fill="#757575" stroke="#757575" points="1110.24,-962.9 1117.33,-970.76 1116.69,-960.19 1110.24,-962.9"/>
</g>
<!-- ../oasContext.ts&#45;&gt;type.ts -->
<g id="edge15" class="edge">
<title>../oasContext.ts&#45;&gt;type.ts</title>
<path fill="none" stroke="#757575" d="M312.26,-1241.97C326.12,-1223.05 358.62,-1187.71 392.37,-1153.31"/>
<polygon fill="#757575" stroke="#757575" points="394.46,-1156.19 398.98,-1146.61 389.47,-1151.27 394.46,-1156.19"/>
</g>
<!-- ../log/trace.ts -->
<g id="node14" class="node">
<title>../log/trace.ts</title>
<path fill="none" stroke="#ff6c60" d="M1512.83,-1582.18C1512.83,-1582.18 1435.42,-1582.18 1435.42,-1582.18 1431.46,-1582.18 1427.5,-1578.22 1427.5,-1574.26 1427.5,-1574.26 1427.5,-1566.35 1427.5,-1566.35 1427.5,-1562.39 1431.46,-1558.43 1435.42,-1558.43 1435.42,-1558.43 1512.83,-1558.43 1512.83,-1558.43 1516.79,-1558.43 1520.75,-1562.39 1520.75,-1566.35 1520.75,-1566.35 1520.75,-1574.26 1520.75,-1574.26 1520.75,-1578.22 1516.79,-1582.18 1512.83,-1582.18"/>
<text text-anchor="middle" x="1474.12" y="-1564.88" font-family="Arial" font-size="14.00" fill="#ff6c60">../log/trace.ts</text>
</g>
<!-- ../oasContext.ts&#45;&gt;../log/trace.ts -->
<g id="edge14" class="edge">
<title>../oasContext.ts&#45;&gt;../log/trace.ts</title>
<path fill="none" stroke="#757575" d="M306.09,-1266.57C310.66,-1349.23 337.29,-1822.12 395.25,-1953.31 494.02,-2176.83 579,-2298.31 823.38,-2298.31 823.38,-2298.31 823.38,-2298.31 1234.75,-2298.31 1354.45,-2298.31 1346.13,-2190.07 1391.5,-2079.31 1463.75,-1902.9 1472.42,-1668.53 1473.18,-1593.95"/>
<polygon fill="#757575" stroke="#757575" points="1476.68,-1594.19 1473.23,-1584.17 1469.68,-1594.15 1476.68,-1594.19"/>
</g>
<!-- ../oasGen.ts&#45;&gt;../io/writer.ts -->
<g id="edge16" class="edge">
<title>../oasGen.ts&#45;&gt;../io/writer.ts</title>
<path fill="none" stroke="#757575" d="M123.62,-1188.06C115.8,-1187.27 107.58,-1186.26 99.51,-1185.12"/>
<polygon fill="#757575" stroke="#757575" points="100.18,-1181.69 89.77,-1183.66 99.14,-1188.61 100.18,-1181.69"/>
</g>
<!-- ../oasGen.ts&#45;&gt;../oasContext.ts -->
<g id="edge18" class="edge">
<title>../oasGen.ts&#45;&gt;../oasContext.ts</title>
<path fill="none" stroke="#757575" d="M193.4,-1199.66C209.23,-1207.88 230.55,-1218.86 249.5,-1228.31 255.34,-1231.21 261.55,-1234.26 267.6,-1237.2"/>
<polygon fill="#757575" stroke="#757575" points="265.66,-1240.15 276.19,-1241.35 268.71,-1233.85 265.66,-1240.15"/>
</g>
<!-- ../oasGen.ts&#45;&gt;type.ts -->
<g id="edge20" class="edge">
<title>../oasGen.ts&#45;&gt;type.ts</title>
<path fill="none" stroke="#757575" d="M213.7,-1180.61C252.29,-1174.39 309.83,-1164.3 359.25,-1152.31 367.23,-1150.37 375.7,-1148.02 383.75,-1145.64"/>
<polygon fill="#757575" stroke="#757575" points="384.76,-1148.99 393.31,-1142.74 382.73,-1142.29 384.76,-1148.99"/>
</g>
<!-- ../oasGen.ts&#45;&gt;../log/trace.ts -->
<g id="edge17" class="edge">
<title>../oasGen.ts&#45;&gt;../log/trace.ts</title>
<path fill="none" stroke="#757575" d="M170.17,-1199.61C175.24,-1328.7 235.78,-2430.31 823.38,-2430.31 823.38,-2430.31 823.38,-2430.31 1234.75,-2430.31 1353.72,-2430.31 1347.82,-2323.97 1391.5,-2213.31 1437.56,-2096.62 1465.3,-1695.44 1471.7,-1593.84"/>
<polygon fill="#757575" stroke="#757575" points="1475.18,-1594.2 1472.31,-1584 1468.2,-1593.77 1475.18,-1594.2"/>
</g>
<!-- factory.ts -->
<g id="node15" class="node">
<title>factory.ts</title>
<path fill="none" stroke="#ff6c60" d="M549.08,-1355.18C549.08,-1355.18 494.92,-1355.18 494.92,-1355.18 490.96,-1355.18 487,-1351.22 487,-1347.26 487,-1347.26 487,-1339.35 487,-1339.35 487,-1335.39 490.96,-1331.43 494.92,-1331.43 494.92,-1331.43 549.08,-1331.43 549.08,-1331.43 553.04,-1331.43 557,-1335.39 557,-1339.35 557,-1339.35 557,-1347.26 557,-1347.26 557,-1351.22 553.04,-1355.18 549.08,-1355.18"/>
<text text-anchor="middle" x="522" y="-1337.88" font-family="Arial" font-size="14.00" fill="#ff6c60">factory.ts</text>
</g>
<!-- ../oasGen.ts&#45;&gt;factory.ts -->
<g id="edge19" class="edge">
<title>../oasGen.ts&#45;&gt;factory.ts</title>
<path fill="none" stroke="#757575" d="M213.86,-1194.02C253.06,-1200.91 311.4,-1213.47 359.25,-1233.31 403.38,-1251.6 411.64,-1262.23 451,-1289.31 466.77,-1300.16 483.79,-1313.25 497.1,-1323.83"/>
<polygon fill="#757575" stroke="#757575" points="494.89,-1326.54 504.88,-1330.07 499.27,-1321.08 494.89,-1326.54"/>
</g>
<!-- circularRef.ts&#45;&gt;../io/writer.ts -->
<g id="edge26" class="edge">
<title>circularRef.ts&#45;&gt;../io/writer.ts</title>
<path fill="none" stroke="#757575" d="M1091.55,-292.05C986.72,-244.06 643.85,-74.31 523,-74.31 303.38,-74.31 303.38,-74.31 303.38,-74.31 215.34,-74.31 174.07,-85.9 124,-158.31 65.66,-242.67 48.33,-1003.93 45.46,-1147.93"/>
<polygon fill="#757575" stroke="#757575" points="41.96,-1147.66 45.27,-1157.73 48.96,-1147.8 41.96,-1147.66"/>
</g>
<!-- circularRef.ts&#45;&gt;../oasContext.ts -->
<g id="edge28" class="edge">
<title>circularRef.ts&#45;&gt;../oasContext.ts</title>
<path fill="none" stroke="#757575" d="M1075.67,-301.63C942.13,-296.87 557.85,-303.97 395.25,-528.31 311.19,-644.28 305.49,-1119.49 305.32,-1230.87"/>
<polygon fill="#757575" stroke="#757575" points="301.82,-1230.57 305.32,-1240.57 308.82,-1230.57 301.82,-1230.57"/>
</g>
<!-- circularRef.ts&#45;&gt;type.ts -->
<g id="edge29" class="edge">
<title>circularRef.ts&#45;&gt;type.ts</title>
<path fill="none" stroke="#757575" d="M1075.77,-313.05C975.15,-334.16 735.19,-396.83 593,-536.31 590.88,-538.39 487.98,-719.5 487,-722.31 437.73,-863.87 427.02,-1046.2 424.73,-1110.02"/>
<polygon fill="#757575" stroke="#757575" points="421.25,-1109.53 424.43,-1119.64 428.24,-1109.76 421.25,-1109.53"/>
</g>
<!-- circularRef.ts&#45;&gt;../log/trace.ts -->
<g id="edge27" class="edge">
<title>circularRef.ts&#45;&gt;../log/trace.ts</title>
<path fill="none" stroke="#757575" d="M1133.62,-316.53C1172.97,-369.37 1327.55,-584.56 1391.5,-788.31 1437.7,-935.5 1465.95,-1432.43 1471.93,-1546.73"/>
<polygon fill="#757575" stroke="#757575" points="1468.43,-1546.88 1472.44,-1556.68 1475.42,-1546.52 1468.43,-1546.88"/>
</g>
<!-- comp.ts&#45;&gt;../io/writer.ts -->
<g id="edge30" class="edge">
<title>comp.ts&#45;&gt;../io/writer.ts</title>
<path fill="none" stroke="#757575" d="M1115.92,-679.23C1084.9,-615.45 943.58,-319.41 725.25,-196.31 646.2,-151.74 613.75,-168.31 523,-168.31 303.38,-168.31 303.38,-168.31 303.38,-168.31 222.31,-168.31 178.34,-141.16 124,-201.31 58.26,-274.08 46.88,-1006.68 45.24,-1147.89"/>
<polygon fill="#757575" stroke="#757575" points="41.75,-1147.48 45.14,-1157.51 48.75,-1147.55 41.75,-1147.48"/>
</g>
<!-- comp.ts&#45;&gt;../oasContext.ts -->
<g id="edge32" class="edge">
<title>comp.ts&#45;&gt;../oasContext.ts</title>
<path fill="none" stroke="#757575" d="M1104.1,-678.97C1012.6,-618.82 600.45,-367.31 395.25,-572.31 347.46,-620.05 313.94,-1116.18 306.8,-1230.78"/>
<polygon fill="#757575" stroke="#757575" points="303.32,-1230.31 306.2,-1240.5 310.31,-1230.74 303.32,-1230.31"/>
</g>
<!-- comp.ts&#45;&gt;props/prop.ts -->
<g id="edge34" class="edge">
<title>comp.ts&#45;&gt;props/prop.ts</title>
<path fill="none" stroke="#757575" d="M1132.42,-703.48C1164.91,-752.64 1286.73,-936.97 1328.76,-1000.57"/>
<polygon fill="#757575" stroke="#757575" points="1325.74,-1002.35 1334.17,-1008.76 1331.58,-998.49 1325.74,-1002.35"/>
</g>
<!-- comp.ts&#45;&gt;type.ts -->
<g id="edge36" class="edge">
<title>comp.ts&#45;&gt;type.ts</title>
<path fill="none" stroke="#757575" d="M1090.93,-687.82C986.04,-678.12 645.86,-662.72 487,-848.31 453.01,-888.02 432.97,-1048.84 426.47,-1109.76"/>
<polygon fill="#757575" stroke="#757575" points="422.99,-1109.35 425.44,-1119.66 429.96,-1110.07 422.99,-1109.35"/>
</g>
<!-- comp.ts&#45;&gt;../log/trace.ts -->
<g id="edge31" class="edge">
<title>comp.ts&#45;&gt;../log/trace.ts</title>
<path fill="none" stroke="#757575" d="M1153.46,-703.6C1210.22,-729.29 1335.14,-794.5 1391.5,-892.31 1457.84,-1007.43 1470.58,-1440.7 1472.73,-1546.76"/>
<polygon fill="#757575" stroke="#757575" points="1469.23,-1546.59 1472.91,-1556.52 1476.22,-1546.46 1469.23,-1546.59"/>
</g>
<!-- comp.ts&#45;&gt;factory.ts -->
<g id="edge33" class="edge">
<title>comp.ts&#45;&gt;factory.ts</title>
<path fill="none" stroke="#757575" d="M1091.1,-699.47C998.32,-718.74 722.98,-774.09 593,-943.31 546.55,-1003.78 529.05,-1243.96 524.39,-1320.16"/>
<polygon fill="#757575" stroke="#757575" points="520.92,-1319.6 523.82,-1329.79 527.9,-1320.02 520.92,-1319.6"/>
</g>
<!-- ref.ts -->
<g id="node17" class="node">
<title>ref.ts</title>
<path fill="none" stroke="#ff6c60" d="M1252.83,-1421.18C1252.83,-1421.18 1214.67,-1421.18 1214.67,-1421.18 1210.71,-1421.18 1206.75,-1417.22 1206.75,-1413.26 1206.75,-1413.26 1206.75,-1405.35 1206.75,-1405.35 1206.75,-1401.39 1210.71,-1397.43 1214.67,-1397.43 1214.67,-1397.43 1252.83,-1397.43 1252.83,-1397.43 1256.79,-1397.43 1260.75,-1401.39 1260.75,-1405.35 1260.75,-1405.35 1260.75,-1413.26 1260.75,-1413.26 1260.75,-1417.22 1256.79,-1421.18 1252.83,-1421.18"/>
<text text-anchor="middle" x="1233.75" y="-1403.88" font-family="Arial" font-size="14.00" fill="#ff6c60">ref.ts</text>
</g>
<!-- comp.ts&#45;&gt;ref.ts -->
<g id="edge35" class="edge">
<title>comp.ts&#45;&gt;ref.ts</title>
<path fill="none" stroke="#757575" d="M1126.59,-703.48C1133.51,-741.7 1155.19,-862.71 1170.75,-963.31 1195.73,-1124.79 1221.25,-1319.91 1229.78,-1386.08"/>
<polygon fill="#757575" stroke="#757575" points="1226.27,-1386.25 1231.02,-1395.72 1233.21,-1385.36 1226.27,-1386.25"/>
</g>
<!-- get.ts&#45;&gt;../io/writer.ts -->
<g id="edge60" class="edge">
<title>get.ts&#45;&gt;../io/writer.ts</title>
<path fill="none" stroke="#757575" d="M806.88,-2124.51C762.26,-2150.04 634.99,-2204.31 523,-2204.31 303.38,-2204.31 303.38,-2204.31 303.38,-2204.31 191.37,-2204.31 171.96,-2128.52 124,-2027.31 51.54,-1874.4 45.5,-1316.63 45.03,-1194.82"/>
<polygon fill="#757575" stroke="#757575" points="48.53,-1195.06 45.01,-1185.07 41.53,-1195.08 48.53,-1195.06"/>
</g>
<!-- get.ts&#45;&gt;../oasContext.ts -->
<g id="edge62" class="edge">
<title>get.ts&#45;&gt;../oasContext.ts</title>
<path fill="none" stroke="#757575" d="M796.91,-2109.97C718.07,-2101.4 484.75,-2063.99 395.25,-1916.31 328.02,-1805.38 309.66,-1382.93 306.1,-1278.01"/>
<polygon fill="#757575" stroke="#757575" points="309.6,-1277.97 305.77,-1268.09 302.6,-1278.2 309.6,-1277.97"/>
</g>
<!-- get.ts&#45;&gt;param/param.ts -->
<g id="edge64" class="edge">
<title>get.ts&#45;&gt;param/param.ts</title>
<path fill="none" stroke="#757575" d="M851.8,-2103.03C863.13,-2098.61 876.29,-2092.85 887.5,-2086.31 905,-2076.08 906.23,-2068.92 923.5,-2058.31 929.14,-2054.84 935.29,-2051.51 941.41,-2048.45"/>
<polygon fill="#757575" stroke="#757575" points="942.7,-2051.71 950.2,-2044.22 939.67,-2045.4 942.7,-2051.71"/>
</g>
<!-- get.ts&#45;&gt;type.ts -->
<g id="edge65" class="edge">
<title>get.ts&#45;&gt;type.ts</title>
<path fill="none" stroke="#757575" d="M797.01,-2101.46C785.93,-2096.86 772.94,-2091.39 761.25,-2086.31 620.97,-2025.28 543.8,-2020.35 487,-1878.31 432.7,-1742.52 425.28,-1268.59 424.28,-1156.98"/>
<polygon fill="#757575" stroke="#757575" points="427.78,-1156.95 424.2,-1146.98 420.78,-1157.01 427.78,-1156.95"/>
</g>
<!-- get.ts&#45;&gt;../log/trace.ts -->
<g id="edge61" class="edge">
<title>get.ts&#45;&gt;../log/trace.ts</title>
<path fill="none" stroke="#757575" d="M851.6,-2112.01C903.36,-2111.45 1022.34,-2110.31 1122.38,-2110.31 1122.38,-2110.31 1122.38,-2110.31 1234.75,-2110.31 1310.69,-2110.31 1344.56,-2102 1391.5,-2042.31 1447.48,-1971.11 1467.29,-1679.36 1471.96,-1593.92"/>
<polygon fill="#757575" stroke="#757575" points="1475.45,-1594.13 1472.48,-1583.96 1468.46,-1593.77 1475.45,-1594.13"/>
</g>
<!-- get.ts&#45;&gt;factory.ts -->
<g id="edge63" class="edge">
<title>get.ts&#45;&gt;factory.ts</title>
<path fill="none" stroke="#757575" d="M819.5,-2099.99C809.1,-2062.03 777.77,-1946.93 725.25,-1864.31 679.85,-1792.88 631.42,-1802.71 593,-1727.31 551.2,-1645.27 573.98,-1613.79 557,-1523.31 546.51,-1467.4 533.1,-1401.43 526.71,-1366.73"/>
<polygon fill="#757575" stroke="#757575" points="530.16,-1366.16 524.96,-1356.93 523.27,-1367.39 530.16,-1366.16"/>
</g>
<!-- obj.ts&#45;&gt;../io/writer.ts -->
<g id="edge66" class="edge">
<title>obj.ts&#45;&gt;../io/writer.ts</title>
<path fill="none" stroke="#757575" d="M654.26,-1564.38C635.73,-1612.95 551.47,-1788.31 424.12,-1788.31 303.38,-1788.31 303.38,-1788.31 303.38,-1788.31 172.79,-1788.31 70.09,-1307.24 48.98,-1194.6"/>
<polygon fill="#757575" stroke="#757575" points="52.47,-1194.23 47.23,-1185.02 45.59,-1195.49 52.47,-1194.23"/>
</g>
<!-- obj.ts&#45;&gt;../oasContext.ts -->
<g id="edge68" class="edge">
<title>obj.ts&#45;&gt;../oasContext.ts</title>
<path fill="none" stroke="#757575" d="M631.65,-1545.69C596.07,-1535.84 532.1,-1514.71 487,-1480.31 408.8,-1420.66 344.17,-1320.41 317.95,-1276.28"/>
<polygon fill="#757575" stroke="#757575" points="321.1,-1274.73 313.02,-1267.87 315.06,-1278.27 321.1,-1274.73"/>
</g>
<!-- obj.ts&#45;&gt;get.ts -->
<g id="edge71" class="edge">
<title>obj.ts&#45;&gt;get.ts</title>
<path fill="none" stroke="#757575" d="M665.15,-1564.53C676.73,-1592.94 705.75,-1665.79 725.25,-1728.31 767.32,-1863.22 805.05,-2028.83 818.32,-2089.04"/>
<polygon fill="#757575" stroke="#757575" points="814.89,-2089.74 820.45,-2098.76 821.73,-2088.24 814.89,-2089.74"/>
</g>
<!-- obj.ts&#45;&gt;props/propArray.ts -->
<g id="edge72" class="edge">
<title>obj.ts&#45;&gt;props/propArray.ts</title>
<path fill="none" stroke="#757575" d="M664.16,-1540.39C685.62,-1477.04 786.42,-1179.41 815.5,-1093.55"/>
<polygon fill="#757575" stroke="#757575" points="818.81,-1094.7 818.7,-1084.11 812.18,-1092.46 818.81,-1094.7"/>
</g>
<!-- obj.ts&#45;&gt;type.ts -->
<g id="edge75" class="edge">
<title>obj.ts&#45;&gt;type.ts</title>
<path fill="none" stroke="#757575" d="M631.89,-1544.57C619.52,-1540.25 604.89,-1534.14 593,-1526.31 574.11,-1513.86 574.4,-1504.77 557,-1490.31 527.98,-1466.2 507.84,-1473.75 487,-1442.31 455.53,-1394.82 433.67,-1220.31 426.6,-1156.7"/>
<polygon fill="#757575" stroke="#757575" points="430.11,-1156.6 425.55,-1147.03 423.15,-1157.35 430.11,-1156.6"/>
</g>
<!-- obj.ts&#45;&gt;../log/trace.ts -->
<g id="edge67" class="edge">
<title>obj.ts&#45;&gt;../log/trace.ts</title>
<path fill="none" stroke="#757575" d="M686.33,-1554.85C698.98,-1557.1 713.85,-1561.34 725.25,-1569.31 748.28,-1585.42 738.34,-1605.02 761.25,-1621.31 911.03,-1727.76 987.28,-1688.47 1170.75,-1678.31 1269.55,-1672.83 1302.69,-1692.94 1391.5,-1649.31 1418.78,-1635.9 1442.8,-1610 1457.6,-1591.51"/>
<polygon fill="#757575" stroke="#757575" points="1460.19,-1593.87 1463.54,-1583.82 1454.65,-1589.59 1460.19,-1593.87"/>
</g>
<!-- obj.ts&#45;&gt;factory.ts -->
<g id="edge70" class="edge">
<title>obj.ts&#45;&gt;factory.ts</title>
<path fill="none" stroke="#757575" d="M631.84,-1555.11C618.71,-1552.29 603.43,-1545.88 593,-1535.31 580.89,-1523.02 544.03,-1415.34 529.24,-1366.66"/>
<polygon fill="#757575" stroke="#757575" points="532.61,-1365.69 526.41,-1357.09 525.89,-1367.68 532.61,-1365.69"/>
</g>
<!-- arr.ts -->
<g id="node16" class="node">
<title>arr.ts</title>
<path fill="none" stroke="#ff6c60" d="M1363.21,-1640.18C1363.21,-1640.18 1325.04,-1640.18 1325.04,-1640.18 1321.08,-1640.18 1317.12,-1636.22 1317.12,-1632.26 1317.12,-1632.26 1317.12,-1624.35 1317.12,-1624.35 1317.12,-1620.39 1321.08,-1616.43 1325.04,-1616.43 1325.04,-1616.43 1363.21,-1616.43 1363.21,-1616.43 1367.17,-1616.43 1371.12,-1620.39 1371.12,-1624.35 1371.12,-1624.35 1371.12,-1632.26 1371.12,-1632.26 1371.12,-1636.22 1367.17,-1640.18 1363.21,-1640.18"/>
<text text-anchor="middle" x="1344.12" y="-1622.88" font-family="Arial" font-size="14.00" fill="#ff6c60">arr.ts</text>
</g>
<!-- obj.ts&#45;&gt;arr.ts -->
<g id="edge69" class="edge">
<title>obj.ts&#45;&gt;arr.ts</title>
<path fill="none" stroke="#757575" d="M686.59,-1558.59C698.49,-1561.58 712.65,-1565.35 725.25,-1569.31 814.84,-1597.42 831.59,-1623.11 923.5,-1642.31 1070.28,-1672.96 1112.2,-1671.66 1260.75,-1651.31 1275.84,-1649.24 1292.06,-1645.14 1306.09,-1640.96"/>
<polygon fill="#757575" stroke="#757575" points="1306.84,-1644.39 1315.36,-1638.08 1304.77,-1637.71 1306.84,-1644.39"/>
</g>
<!-- obj.ts&#45;&gt;ref.ts -->
<g id="edge73" class="edge">
<title>obj.ts&#45;&gt;ref.ts</title>
<path fill="none" stroke="#757575" d="M686.38,-1554.39C729.06,-1557.13 815.94,-1560.04 887.5,-1545.31 1007.44,-1520.62 1139.62,-1457.61 1199.73,-1426.8"/>
<polygon fill="#757575" stroke="#757575" points="1201.14,-1430.01 1208.41,-1422.31 1197.92,-1423.79 1201.14,-1430.01"/>
</g>
<!-- response.ts -->
<g id="node21" class="node">
<title>response.ts</title>
<path fill="none" stroke="#ff6c60" d="M859.33,-1792.18C859.33,-1792.18 789.42,-1792.18 789.42,-1792.18 785.46,-1792.18 781.5,-1788.22 781.5,-1784.26 781.5,-1784.26 781.5,-1776.35 781.5,-1776.35 781.5,-1772.39 785.46,-1768.43 789.42,-1768.43 789.42,-1768.43 859.33,-1768.43 859.33,-1768.43 863.29,-1768.43 867.25,-1772.39 867.25,-1776.35 867.25,-1776.35 867.25,-1784.26 867.25,-1784.26 867.25,-1788.22 863.29,-1792.18 859.33,-1792.18"/>
<text text-anchor="middle" x="824.38" y="-1774.88" font-family="Arial" font-size="14.00" fill="#ff6c60">response.ts</text>
</g>
<!-- obj.ts&#45;&gt;response.ts -->
<g id="edge74" class="edge">
<title>obj.ts&#45;&gt;response.ts</title>
<path fill="none" stroke="#757575" d="M686.49,-1556.68C699.98,-1560.26 715.57,-1566.72 725.25,-1578.31 776.46,-1639.56 710.54,-1692.63 761.25,-1754.31 764.13,-1757.81 767.57,-1760.85 771.33,-1763.49"/>
<polygon fill="#757575" stroke="#757575" points="769.49,-1766.47 779.89,-1768.48 773.01,-1760.42 769.49,-1766.47"/>
</g>
<!-- param/param.ts&#45;&gt;../io/writer.ts -->
<g id="edge76" class="edge">
<title>param/param.ts&#45;&gt;../io/writer.ts</title>
<path fill="none" stroke="#757575" d="M963.13,-2043.64C950.74,-2049.31 934.49,-2056.39 923.5,-2067.31 897.27,-2093.36 914.77,-2117.34 887.5,-2142.31 758.98,-2260 251.41,-2440.2 124,-2321.31 38.93,-2241.92 43.41,-1351.31 44.78,-1194.7"/>
<polygon fill="#757575" stroke="#757575" points="48.27,-1195.16 44.86,-1185.13 41.27,-1195.1 48.27,-1195.16"/>
</g>
<!-- param/param.ts&#45;&gt;../oasContext.ts -->
<g id="edge78" class="edge">
<title>param/param.ts&#45;&gt;../oasContext.ts</title>
<path fill="none" stroke="#757575" d="M943.54,-2043.68C926.65,-2048.67 906.28,-2053.83 887.5,-2056.31 756.71,-2073.53 707.21,-2085.33 593,-2019.31 480.03,-1954.01 452.1,-1919.76 395.25,-1802.31 349.02,-1706.79 315.84,-1370.3 307.45,-1277.92"/>
<polygon fill="#757575" stroke="#757575" points="310.94,-1277.71 306.57,-1268.07 303.97,-1278.34 310.94,-1277.71"/>
</g>
<!-- param/param.ts&#45;&gt;type.ts -->
<g id="edge80" class="edge">
<title>param/param.ts&#45;&gt;type.ts</title>
<path fill="none" stroke="#757575" d="M925.52,-2039.43C843.98,-2048.24 690.53,-2052.29 593,-1977.31 501.2,-1906.73 516.9,-1851.17 487,-1739.31 428.02,-1518.64 423.8,-1239.05 423.93,-1156.96"/>
<polygon fill="#757575" stroke="#757575" points="427.43,-1157.05 423.97,-1147.04 420.43,-1157.02 427.43,-1157.05"/>
</g>
<!-- param/param.ts&#45;&gt;../log/trace.ts -->
<g id="edge77" class="edge">
<title>param/param.ts&#45;&gt;../log/trace.ts</title>
<path fill="none" stroke="#757575" d="M1025.85,-2043.67C1108.16,-2064.39 1288.67,-2095.49 1391.5,-2004.31 1453.64,-1949.21 1469.06,-1676.55 1472.34,-1594.02"/>
<polygon fill="#757575" stroke="#757575" points="1475.83,-1594.3 1472.7,-1584.18 1468.83,-1594.04 1475.83,-1594.3"/>
</g>
<!-- param/param.ts&#45;&gt;factory.ts -->
<g id="edge79" class="edge">
<title>param/param.ts&#45;&gt;factory.ts</title>
<path fill="none" stroke="#757575" d="M960.08,-2019.14C917.95,-1987.39 821.05,-1900.46 761.25,-1810.31 739.02,-1776.8 752.38,-1756.98 725.25,-1727.31 680.09,-1677.92 633.48,-1708.6 593,-1655.31 584.22,-1643.75 540.78,-1437.72 527.12,-1366.83"/>
<polygon fill="#757575" stroke="#757575" points="530.57,-1366.25 525.28,-1357.08 523.69,-1367.55 530.57,-1366.25"/>
</g>
<!-- props/prop.ts&#45;&gt;../io/writer.ts -->
<g id="edge81" class="edge">
<title>props/prop.ts&#45;&gt;../io/writer.ts</title>
<path fill="none" stroke="#757575" d="M1341.4,-1010.09C1330.12,-924.11 1264.35,-413.52 1170.75,-292.31 979.7,-44.9 835.59,-18.31 523,-18.31 303.38,-18.31 303.38,-18.31 303.38,-18.31 219.02,-18.31 175.37,-13.4 124,-80.31 56.51,-168.19 46.48,-996.68 45.18,-1147.77"/>
<polygon fill="#757575" stroke="#757575" points="41.68,-1147.68 45.1,-1157.71 48.68,-1147.74 41.68,-1147.68"/>
</g>
<!-- props/prop.ts&#45;&gt;../oasContext.ts -->
<g id="edge82" class="edge">
<title>props/prop.ts&#45;&gt;../oasContext.ts</title>
<path fill="none" stroke="#757575" d="M1332.1,-1034.62C1317.14,-1050.79 1289.03,-1079.34 1260.75,-1098.31 1172.34,-1157.62 1143.63,-1166.89 1040,-1191.31 798.11,-1248.29 500.61,-1255.08 370.96,-1255.03"/>
<polygon fill="#757575" stroke="#757575" points="371.2,-1251.53 361.2,-1255.01 371.19,-1258.53 371.2,-1251.53"/>
</g>
<!-- props/prop.ts&#45;&gt;type.ts -->
<g id="edge83" class="edge">
<title>props/prop.ts&#45;&gt;type.ts</title>
<path fill="none" stroke="#757575" d="M1343.13,-1010.03C1342.3,-937.18 1327.52,-568.31 1124.38,-568.31 823.38,-568.31 823.38,-568.31 823.38,-568.31 765.77,-568.31 528.02,-729.57 487,-795.31 453.52,-848.97 433.12,-1042.09 426.5,-1109.83"/>
<polygon fill="#757575" stroke="#757575" points="423.05,-1109.16 425.57,-1119.45 430.02,-1109.84 423.05,-1109.16"/>
</g>
<!-- props/propArray.ts&#45;&gt;../io/writer.ts -->
<g id="edge84" class="edge">
<title>props/propArray.ts&#45;&gt;../io/writer.ts</title>
<path fill="none" stroke="#757575" d="M822.17,-1058.13C813.06,-966.63 746.22,-394.31 424.12,-394.31 303.38,-394.31 303.38,-394.31 303.38,-394.31 217.63,-394.31 176.02,-397.15 124,-465.31 81.41,-521.1 52.7,-1030.34 46.33,-1147.46"/>
<polygon fill="#757575" stroke="#757575" points="42.84,-1147.25 45.8,-1157.42 49.83,-1147.63 42.84,-1147.25"/>
</g>
<!-- props/propArray.ts&#45;&gt;../oasContext.ts -->
<g id="edge86" class="edge">
<title>props/propArray.ts&#45;&gt;../oasContext.ts</title>
<path fill="none" stroke="#757575" d="M760.76,-1059.43C671.68,-1047.47 506.82,-1038.66 395.25,-1112.31 351.66,-1141.08 325.09,-1199.05 313.04,-1231.31"/>
<polygon fill="#757575" stroke="#757575" points="309.83,-1229.91 309.77,-1240.51 316.42,-1232.26 309.83,-1229.91"/>
</g>
<!-- props/propArray.ts&#45;&gt;props/prop.ts -->
<g id="edge88" class="edge">
<title>props/propArray.ts&#45;&gt;props/prop.ts</title>
<path fill="none" stroke="#757575" d="M887.83,-1064.52C988.98,-1055.14 1187.21,-1036.76 1285.31,-1027.67"/>
<polygon fill="#757575" stroke="#757575" points="1285.34,-1031.18 1294.97,-1026.77 1284.69,-1024.21 1285.34,-1031.18"/>
</g>
<!-- props/propArray.ts&#45;&gt;type.ts -->
<g id="edge91" class="edge">
<title>props/propArray.ts&#45;&gt;type.ts</title>
<path fill="none" stroke="#757575" d="M760.9,-1078.52C693.23,-1087.67 582.19,-1103.4 487,-1120.31 479.02,-1121.72 470.5,-1123.38 462.39,-1125.04"/>
<polygon fill="#757575" stroke="#757575" points="461.86,-1121.57 452.78,-1127.03 463.28,-1128.43 461.86,-1121.57"/>
</g>
<!-- props/propArray.ts&#45;&gt;../log/trace.ts -->
<g id="edge85" class="edge">
<title>props/propArray.ts&#45;&gt;../log/trace.ts</title>
<path fill="none" stroke="#757575" d="M887.72,-1073.68C1004.53,-1083.47 1256.73,-1121.64 1391.5,-1270.31 1464.82,-1351.18 1473.24,-1491.51 1473.54,-1546.88"/>
<polygon fill="#757575" stroke="#757575" points="1470.04,-1546.67 1473.49,-1556.69 1477.04,-1546.7 1470.04,-1546.67"/>
</g>
<!-- props/propArray.ts&#45;&gt;factory.ts -->
<g id="edge87" class="edge">
<title>props/propArray.ts&#45;&gt;factory.ts</title>
<path fill="none" stroke="#757575" d="M813.49,-1082.27C781.16,-1114.52 675.81,-1203.2 593,-1281.31 578.33,-1295.14 562.52,-1311.09 549.64,-1323.51"/>
<polygon fill="#757575" stroke="#757575" points="547.58,-1320.64 542.74,-1330.06 552.4,-1325.71 547.58,-1320.64"/>
</g>
<!-- props/propObj.ts -->
<g id="node19" class="node">
<title>props/propObj.ts</title>
<path fill="none" stroke="#ff6c60" d="M1032.08,-1182.18C1032.08,-1182.18 931.42,-1182.18 931.42,-1182.18 927.46,-1182.18 923.5,-1178.22 923.5,-1174.26 923.5,-1174.26 923.5,-1166.35 923.5,-1166.35 923.5,-1162.39 927.46,-1158.43 931.42,-1158.43 931.42,-1158.43 1032.08,-1158.43 1032.08,-1158.43 1036.04,-1158.43 1040,-1162.39 1040,-1166.35 1040,-1166.35 1040,-1174.26 1040,-1174.26 1040,-1178.22 1036.04,-1182.18 1032.08,-1182.18"/>
<text text-anchor="middle" x="981.75" y="-1164.88" font-family="Arial" font-size="14.00" fill="#ff6c60">props/propObj.ts</text>
</g>
<!-- props/propArray.ts&#45;&gt;props/propObj.ts -->
<g id="edge89" class="edge">
<title>props/propArray.ts&#45;&gt;props/propObj.ts</title>
<path fill="none" stroke="#757575" d="M840.67,-1082.49C863.79,-1100.8 906.72,-1134.33 923.5,-1144.31 928.78,-1147.44 934.5,-1150.46 940.22,-1153.25"/>
<polygon fill="#757575" stroke="#757575" points="938.49,-1156.31 949.04,-1157.38 941.46,-1149.97 938.49,-1156.31"/>
</g>
<!-- props/propRef.ts -->
<g id="node20" class="node">
<title>props/propRef.ts</title>
<path fill="none" stroke="#ff6c60" d="M1031.71,-939.18C1031.71,-939.18 931.79,-939.18 931.79,-939.18 927.83,-939.18 923.88,-935.22 923.88,-931.26 923.88,-931.26 923.88,-923.35 923.88,-923.35 923.88,-919.39 927.83,-915.43 931.79,-915.43 931.79,-915.43 1031.71,-915.43 1031.71,-915.43 1035.67,-915.43 1039.62,-919.39 1039.62,-923.35 1039.62,-923.35 1039.62,-931.26 1039.62,-931.26 1039.62,-935.22 1035.67,-939.18 1031.71,-939.18"/>
<text text-anchor="middle" x="981.75" y="-921.88" font-family="Arial" font-size="14.00" fill="#ff6c60">props/propRef.ts</text>
</g>
<!-- props/propArray.ts&#45;&gt;props/propRef.ts -->
<g id="edge90" class="edge">
<title>props/propArray.ts&#45;&gt;props/propRef.ts</title>
<path fill="none" stroke="#757575" d="M838.62,-1058.11C865.45,-1033.42 926.44,-977.29 959.12,-947.21"/>
<polygon fill="#757575" stroke="#757575" points="961.43,-949.84 966.42,-940.49 956.69,-944.69 961.43,-949.84"/>
</g>
<!-- props/propScalar.ts&#45;&gt;../io/writer.ts -->
<g id="edge111" class="edge">
<title>props/propScalar.ts&#45;&gt;../io/writer.ts</title>
<path fill="none" stroke="#757575" d="M643.83,-1888.56C607.99,-1911.95 510.94,-1958.31 424.12,-1958.31 303.38,-1958.31 303.38,-1958.31 303.38,-1958.31 139.12,-1958.31 61.02,-1325.86 47.24,-1194.82"/>
<polygon fill="#757575" stroke="#757575" points="50.73,-1194.54 46.23,-1184.94 43.77,-1195.25 50.73,-1194.54"/>
</g>
<!-- props/propScalar.ts&#45;&gt;../oasContext.ts -->
<g id="edge113" class="edge">
<title>props/propScalar.ts&#45;&gt;../oasContext.ts</title>
<path fill="none" stroke="#757575" d="M619.19,-1863.95C610.21,-1860.25 600.96,-1855.71 593,-1850.31 573.75,-1837.24 573.72,-1828.48 557,-1812.31 511.75,-1768.52 498.42,-1759.74 451,-1718.31 426.38,-1696.79 411.96,-1698.41 395.25,-1670.31 316.32,-1537.55 306.37,-1344.24 305.37,-1277.77"/>
<polygon fill="#757575" stroke="#757575" points="308.87,-1278.04 305.29,-1268.07 301.87,-1278.1 308.87,-1278.04"/>
</g>
<!-- props/propScalar.ts&#45;&gt;props/prop.ts -->
<g id="edge115" class="edge">
<title>props/propScalar.ts&#45;&gt;props/prop.ts</title>
<path fill="none" stroke="#757575" d="M717.83,-1863.94C765.41,-1852.21 833.59,-1831.8 887.5,-1801.31 1091.08,-1686.13 1167.97,-1645.02 1260.75,-1430.31 1320.27,-1292.56 1337.43,-1109.83 1341.79,-1045.72"/>
<polygon fill="#757575" stroke="#757575" points="1345.26,-1046.25 1342.4,-1036.04 1338.28,-1045.8 1345.26,-1046.25"/>
</g>
<!-- props/propScalar.ts&#45;&gt;type.ts -->
<g id="edge116" class="edge">
<title>props/propScalar.ts&#45;&gt;type.ts</title>
<path fill="none" stroke="#757575" d="M641.23,-1863.95C626.4,-1852.25 605.35,-1833.37 593,-1812.31 562.25,-1759.85 577.11,-1737.69 557,-1680.31 531.06,-1606.29 509.04,-1593.58 487,-1518.31 447.91,-1384.81 431.07,-1217.7 425.94,-1156.85"/>
<polygon fill="#757575" stroke="#757575" points="429.44,-1156.71 425.14,-1147.03 422.47,-1157.28 429.44,-1156.71"/>
</g>
<!-- props/propScalar.ts&#45;&gt;../log/trace.ts -->
<g id="edge112" class="edge">
<title>props/propScalar.ts&#45;&gt;../log/trace.ts</title>
<path fill="none" stroke="#757575" d="M725.56,-1888.64C790.17,-1899.74 891.9,-1914.31 980.75,-1914.31 980.75,-1914.31 980.75,-1914.31 1234.75,-1914.31 1311.79,-1914.31 1341.19,-1898.65 1391.5,-1840.31 1455.04,-1766.63 1469.12,-1644.7 1472.24,-1593.78"/>
<polygon fill="#757575" stroke="#757575" points="1475.72,-1594.12 1472.74,-1583.95 1468.73,-1593.76 1475.72,-1594.12"/>
</g>
<!-- props/propScalar.ts&#45;&gt;factory.ts -->
<g id="edge114" class="edge">
<title>props/propScalar.ts&#45;&gt;factory.ts</title>
<path fill="none" stroke="#757575" d="M642.58,-1864.09C627.43,-1846.7 604.99,-1814.71 593,-1783.31 578.1,-1744.28 536.96,-1452.93 525.82,-1366.96"/>
<polygon fill="#757575" stroke="#757575" points="529.3,-1366.59 524.56,-1357.11 522.35,-1367.48 529.3,-1366.59"/>
</g>
<!-- type.ts&#45;&gt;../io/writer.ts -->
<g id="edge133" class="edge">
<title>type.ts&#45;&gt;../io/writer.ts</title>
<path fill="none" stroke="#757575" d="M395.22,-1139.71C333.68,-1149.53 181.65,-1165.25 99.6,-1170.72"/>
<polygon fill="#757575" stroke="#757575" points="99.53,-1167.22 89.77,-1171.35 99.97,-1174.21 99.53,-1167.22"/>
</g>
<!-- type.ts&#45;&gt;../oasContext.ts -->
<g id="edge135" class="edge">
<title>type.ts&#45;&gt;../oasContext.ts</title>
<path fill="none" stroke="#757575" d="M416.5,-1145.5C411.01,-1152.82 402.46,-1161.01 395.25,-1168.31 373.3,-1190.5 349,-1216.26 331.21,-1233.96"/>
<polygon fill="#757575" stroke="#757575" points="328.82,-1231.4 324.12,-1240.89 333.72,-1236.4 328.82,-1231.4"/>
</g>
<!-- type.ts&#45;&gt;props/prop.ts -->
<g id="edge137" class="edge">
<title>type.ts&#45;&gt;props/prop.ts</title>
<path fill="none" stroke="#757575" d="M424.89,-1121.24C429.04,-1065.5 450.05,-836.52 487,-777.31 528.02,-711.57 765.77,-550.31 823.38,-550.31 823.38,-550.31 823.38,-550.31 1124.38,-550.31 1323.04,-550.31 1341.55,-903.11 1343.05,-998.76"/>
<polygon fill="#757575" stroke="#757575" points="1339.55,-998.56 1343.15,-1008.52 1346.55,-998.49 1339.55,-998.56"/>
</g>
<!-- type.ts&#45;&gt;../log/trace.ts -->
<g id="edge134" class="edge">
<title>type.ts&#45;&gt;../log/trace.ts</title>
<path fill="none" stroke="#757575" d="M424.19,-1121.19C424.8,-1055.6 430.63,-736.75 487,-484.31 517.54,-347.52 499.2,-291.45 593,-187.31 720.91,-45.28 789.62,-1.31 980.75,-1.31 980.75,-1.31 980.75,-1.31 1234.75,-1.31 1353.36,-1.31 1351.5,-105.64 1391.5,-217.31 1438.1,-347.39 1467.9,-1377.74 1472.5,-1546.86"/>
<polygon fill="#757575" stroke="#757575" points="1469,-1546.87 1472.77,-1556.78 1476,-1546.69 1469,-1546.87"/>
</g>
<!-- type.ts&#45;&gt;factory.ts -->
<g id="edge136" class="edge">
<title>type.ts&#45;&gt;factory.ts</title>
<path fill="none" stroke="#757575" d="M431.57,-1145.63C449.22,-1180.05 493.55,-1276.07 512.35,-1320.5"/>
<polygon fill="#757575" stroke="#757575" points="509.1,-1321.8 516.16,-1329.7 515.57,-1319.12 509.1,-1321.8"/>
</g>
<!-- union.ts&#45;&gt;../io/writer.ts -->
<g id="edge138" class="edge">
<title>union.ts&#45;&gt;../io/writer.ts</title>
<path fill="none" stroke="#757575" d="M1116.14,-972.19C1073.25,-883.23 812.23,-338.31 424.12,-338.31 303.38,-338.31 303.38,-338.31 303.38,-338.31 219.45,-338.31 176.56,-331.88 124,-397.31 75.55,-457.62 50.99,-1024.07 45.98,-1147.65"/>
<polygon fill="#757575" stroke="#757575" points="42.48,-1147.42 45.58,-1157.56 49.48,-1147.71 42.48,-1147.42"/>
</g>
<!-- union.ts&#45;&gt;../oasContext.ts -->
<g id="edge140" class="edge">
<title>union.ts&#45;&gt;../oasContext.ts</title>
<path fill="none" stroke="#757575" d="M1111.62,-971.99C1096.75,-955.49 1068.51,-926.02 1040,-906.31 978.03,-863.46 960.37,-851.43 887.5,-832.31 715.19,-787.08 623.78,-734.18 487,-848.31 361.71,-952.84 319.51,-1161.43 308.59,-1231.07"/>
<polygon fill="#757575" stroke="#757575" points="305.19,-1230.15 307.18,-1240.56 312.11,-1231.18 305.19,-1230.15"/>
</g>
<!-- union.ts&#45;&gt;props/prop.ts -->
<g id="edge142" class="edge">
<title>union.ts&#45;&gt;props/prop.ts</title>
<path fill="none" stroke="#757575" d="M1155.25,-989.67C1188.91,-995.52 1243.53,-1005.01 1285.22,-1012.25"/>
<polygon fill="#757575" stroke="#757575" points="1284.4,-1015.66 1294.85,-1013.92 1285.6,-1008.76 1284.4,-1015.66"/>
</g>
<!-- union.ts&#45;&gt;type.ts -->
<g id="edge144" class="edge">
<title>union.ts&#45;&gt;type.ts</title>
<path fill="none" stroke="#757575" d="M1091.32,-983.83C1052.14,-983.49 982.72,-983.71 923.5,-988.31 723.25,-1003.84 673.8,-1031.51 487,-1105.31 478.48,-1108.67 469.43,-1112.53 460.93,-1116.29"/>
<polygon fill="#757575" stroke="#757575" points="459.6,-1113.04 451.91,-1120.33 462.47,-1119.43 459.6,-1113.04"/>
</g>
<!-- union.ts&#45;&gt;../log/trace.ts -->
<g id="edge139" class="edge">
<title>union.ts&#45;&gt;../log/trace.ts</title>
<path fill="none" stroke="#757575" d="M1155.12,-975.28C1210.31,-961.15 1326.48,-941.23 1391.5,-1001.31 1472.87,-1076.49 1474.49,-1449.28 1473.49,-1546.88"/>
<polygon fill="#757575" stroke="#757575" points="1469.99,-1546.76 1473.37,-1556.8 1476.99,-1546.84 1469.99,-1546.76"/>
</g>
<!-- union.ts&#45;&gt;factory.ts -->
<g id="edge141" class="edge">
<title>union.ts&#45;&gt;factory.ts</title>
<path fill="none" stroke="#757575" d="M1091.41,-991.03C1027.68,-999.5 878.04,-1014.14 761.25,-1058.31 679.46,-1089.24 648.51,-1092.74 593,-1160.31 552.94,-1209.08 534.75,-1282.78 527.38,-1320.19"/>
<polygon fill="#757575" stroke="#757575" points="523.96,-1319.44 525.56,-1329.91 530.84,-1320.73 523.96,-1319.44"/>
</g>
<!-- union.ts&#45;&gt;ref.ts -->
<g id="edge143" class="edge">
<title>union.ts&#45;&gt;ref.ts</title>
<path fill="none" stroke="#757575" d="M1127.5,-996.57C1142.46,-1055.22 1206.8,-1307.54 1226.8,-1385.96"/>
<polygon fill="#757575" stroke="#757575" points="1223.37,-1386.7 1229.24,-1395.53 1230.16,-1384.97 1223.37,-1386.7"/>
</g>
<!-- ../log/trace.ts&#45;&gt;../oasContext.ts -->
<g id="edge13" class="edge">
<title>../log/trace.ts&#45;&gt;../oasContext.ts</title>
<path fill="none" stroke="#757575" d="M1473.23,-1582.5C1473.48,-1642.11 1470.52,-1904.38 1391.5,-2097.31 1346.13,-2208.07 1354.45,-2316.31 1234.75,-2316.31 823.38,-2316.31 823.38,-2316.31 823.38,-2316.31 579,-2316.31 494.02,-2194.83 395.25,-1971.31 338.53,-1842.94 311.82,-1387.37 306.42,-1277.95"/>
<polygon fill="#757575" stroke="#757575" points="309.92,-1277.96 305.95,-1268.14 302.93,-1278.29 309.92,-1277.96"/>
</g>
<!-- factory.ts&#45;&gt;../oasContext.ts -->
<g id="edge42" class="edge">
<title>factory.ts&#45;&gt;../oasContext.ts</title>
<path fill="none" stroke="#757575" d="M491.14,-1330.98C453.2,-1315.32 387.6,-1288.24 345.37,-1270.81"/>
<polygon fill="#757575" stroke="#757575" points="346.88,-1267.65 336.3,-1267.07 344.21,-1274.12 346.88,-1267.65"/>
</g>
<!-- factory.ts&#45;&gt;circularRef.ts -->
<g id="edge44" class="edge">
<title>factory.ts&#45;&gt;circularRef.ts</title>
<path fill="none" stroke="#757575" d="M523.54,-1331.06C526.81,-1261.11 545.33,-911.92 593,-817.31 715.38,-574.4 999.43,-381.24 1092.36,-322.64"/>
<polygon fill="#757575" stroke="#757575" points="1094.08,-325.7 1100.7,-317.43 1090.37,-319.76 1094.08,-325.7"/>
</g>
<!-- factory.ts&#45;&gt;comp.ts -->
<g id="edge45" class="edge">
<title>factory.ts&#45;&gt;comp.ts</title>
<path fill="none" stroke="#757575" d="M523.46,-1331.07C526.25,-1268.79 542.54,-991.01 593,-925.31 718.03,-762.53 977.56,-705.12 1079.72,-692.8"/>
<polygon fill="#757575" stroke="#757575" points="1080.04,-696.29 1089.6,-691.71 1079.27,-689.33 1080.04,-696.29"/>
</g>
<!-- factory.ts&#45;&gt;get.ts -->
<g id="edge47" class="edge">
<title>factory.ts&#45;&gt;get.ts</title>
<path fill="none" stroke="#757575" d="M526.6,-1355.38C532.95,-1382.67 546.45,-1449.08 557,-1505.31 573.98,-1595.79 551.2,-1627.27 593,-1709.31 631.42,-1784.71 679.85,-1774.88 725.25,-1846.31 776.99,-1927.69 808.15,-2040.58 819.01,-2089.06"/>
<polygon fill="#757575" stroke="#757575" points="815.56,-2089.66 821.07,-2098.71 822.41,-2088.2 815.56,-2089.66"/>
</g>
<!-- factory.ts&#45;&gt;obj.ts -->
<g id="edge48" class="edge">
<title>factory.ts&#45;&gt;obj.ts</title>
<path fill="none" stroke="#757575" d="M528.46,-1355.51C542.69,-1393.4 580.67,-1504.8 593,-1517.31 601.33,-1525.76 612.76,-1531.55 623.73,-1535.97"/>
<polygon fill="#757575" stroke="#757575" points="622.39,-1539.2 632.98,-1539.45 624.86,-1532.65 622.39,-1539.2"/>
</g>
<!-- factory.ts&#45;&gt;param/param.ts -->
<g id="edge49" class="edge">
<title>factory.ts&#45;&gt;param/param.ts</title>
<path fill="none" stroke="#757575" d="M526.23,-1355.61C538.78,-1410.21 584.02,-1625.48 593,-1637.31 633.48,-1690.6 680.09,-1659.92 725.25,-1709.31 752.38,-1738.98 739.02,-1758.8 761.25,-1792.31 821.95,-1883.82 920.88,-1972.01 961.95,-2010.99"/>
<polygon fill="#757575" stroke="#757575" points="959.52,-2013.5 969.15,-2017.92 964.37,-2008.46 959.52,-2013.5"/>
</g>
<!-- factory.ts&#45;&gt;props/prop.ts -->
<g id="edge50" class="edge">
<title>factory.ts&#45;&gt;props/prop.ts</title>
<path fill="none" stroke="#757575" d="M557.33,-1339.67C654.95,-1328.76 941.8,-1292.78 1170.75,-1224.31 1212.35,-1211.87 1229.05,-1215.98 1260.75,-1186.31 1303.2,-1146.57 1326.99,-1080.15 1337.15,-1045.28"/>
<polygon fill="#757575" stroke="#757575" points="1340.47,-1046.39 1339.78,-1035.82 1333.73,-1044.52 1340.47,-1046.39"/>
</g>
<!-- factory.ts&#45;&gt;props/propArray.ts -->
<g id="edge51" class="edge">
<title>factory.ts&#45;&gt;props/propArray.ts</title>
<path fill="none" stroke="#757575" d="M529.6,-1331.02C541.82,-1314.35 568.95,-1285.99 593,-1263.31 662.94,-1197.34 748.95,-1123.83 793.48,-1089.48"/>
<polygon fill="#757575" stroke="#757575" points="795.53,-1092.32 801.39,-1083.48 791.3,-1086.74 795.53,-1092.32"/>
</g>
<!-- factory.ts&#45;&gt;props/propScalar.ts -->
<g id="edge54" class="edge">
<title>factory.ts&#45;&gt;props/propScalar.ts</title>
<path fill="none" stroke="#757575" d="M525.1,-1355.65C535.05,-1421.37 577.76,-1725.38 593,-1765.31 605.81,-1798.86 630.54,-1833.08 645.57,-1854.8"/>
<polygon fill="#757575" stroke="#757575" points="642.54,-1856.56 651.05,-1862.87 648.33,-1852.63 642.54,-1856.56"/>
</g>
<!-- factory.ts&#45;&gt;type.ts -->
<g id="edge58" class="edge">
<title>factory.ts&#45;&gt;type.ts</title>
<path fill="none" stroke="#757575" d="M513.65,-1331.16C496.08,-1296.92 451.68,-1200.78 432.82,-1156.22"/>
<polygon fill="#757575" stroke="#757575" points="436.06,-1154.89 428.99,-1146.99 429.59,-1157.57 436.06,-1154.89"/>
</g>
<!-- factory.ts&#45;&gt;union.ts -->
<g id="edge59" class="edge">
<title>factory.ts&#45;&gt;union.ts</title>
<path fill="none" stroke="#757575" d="M524.09,-1330.98C528.12,-1296.61 544.58,-1201.25 593,-1142.31 648.51,-1074.74 679.46,-1071.24 761.25,-1040.31 871.65,-998.56 1011.41,-983.19 1080.2,-981.3"/>
<polygon fill="#757575" stroke="#757575" points="1079.96,-984.81 1089.89,-981.13 1079.83,-977.81 1079.96,-984.81"/>
</g>
<!-- factory.ts&#45;&gt;../log/trace.ts -->
<g id="edge41" class="edge">
<title>factory.ts&#45;&gt;../log/trace.ts</title>
<path fill="none" stroke="#757575" d="M557.19,-1346.88C612.89,-1352.38 726.71,-1362.31 823.38,-1362.31 823.38,-1362.31 823.38,-1362.31 1234.75,-1362.31 1314.21,-1362.31 1332.9,-1394.64 1391.5,-1448.31 1423.4,-1477.52 1448.89,-1521.63 1462.44,-1548.04"/>
<polygon fill="#757575" stroke="#757575" points="1459.22,-1549.44 1466.82,-1556.83 1465.49,-1546.32 1459.22,-1549.44"/>
</g>
<!-- factory.ts&#45;&gt;arr.ts -->
<g id="edge43" class="edge">
<title>factory.ts&#45;&gt;arr.ts</title>
<path fill="none" stroke="#757575" d="M537.68,-1355.57C550.64,-1369.69 570.87,-1391.73 593,-1405.31 837.47,-1555.21 1190.75,-1603.54 1305.56,-1620.87"/>
<polygon fill="#757575" stroke="#757575" points="1304.93,-1624.31 1315.34,-1622.36 1305.99,-1617.39 1304.93,-1624.31"/>
</g>
<!-- factory.ts&#45;&gt;ref.ts -->
<g id="edge55" class="edge">
<title>factory.ts&#45;&gt;ref.ts</title>
<path fill="none" stroke="#757575" d="M557.44,-1353.47C568.52,-1358.38 581.03,-1363.72 593,-1367.31 692.07,-1397.02 719.94,-1400.31 823.38,-1400.31 823.38,-1400.31 823.38,-1400.31 982.75,-1400.31 1058.13,-1400.31 1146.3,-1400.31 1195.21,-1403.12"/>
<polygon fill="#757575" stroke="#757575" points="1194.75,-1406.59 1204.96,-1403.77 1195.22,-1399.61 1194.75,-1406.59"/>
</g>
<!-- en.ts -->
<g id="node18" class="node">
<title>en.ts</title>
<path fill="none" stroke="#ff6c60" d="M678.21,-220.18C678.21,-220.18 640.04,-220.18 640.04,-220.18 636.08,-220.18 632.12,-216.22 632.12,-212.26 632.12,-212.26 632.12,-204.35 632.12,-204.35 632.12,-200.39 636.08,-196.43 640.04,-196.43 640.04,-196.43 678.21,-196.43 678.21,-196.43 682.17,-196.43 686.12,-200.39 686.12,-204.35 686.12,-204.35 686.12,-212.26 686.12,-212.26 686.12,-216.22 682.17,-220.18 678.21,-220.18"/>
<text text-anchor="middle" x="659.12" y="-202.88" font-family="Arial" font-size="14.00" fill="#ff6c60">en.ts</text>
</g>
<!-- factory.ts&#45;&gt;en.ts -->
<g id="edge46" class="edge">
<title>factory.ts&#45;&gt;en.ts</title>
<path fill="none" stroke="#757575" d="M524.08,-1331.3C530.06,-1264.92 560.17,-936.1 593,-668.31 613.56,-500.59 644.08,-299.31 654.49,-231.72"/>
<polygon fill="#757575" stroke="#757575" points="657.95,-232.28 656.02,-221.86 651.03,-231.21 657.95,-232.28"/>
</g>
<!-- factory.ts&#45;&gt;props/propObj.ts -->
<g id="edge52" class="edge">
<title>factory.ts&#45;&gt;props/propObj.ts</title>
<path fill="none" stroke="#757575" d="M547.69,-1330.97C560.98,-1324.51 577.74,-1316.64 593,-1310.31 713.09,-1260.45 858.01,-1210.85 932.04,-1186.25"/>
<polygon fill="#757575" stroke="#757575" points="933.04,-1189.61 941.43,-1183.14 930.84,-1182.96 933.04,-1189.61"/>
</g>
<!-- factory.ts&#45;&gt;props/propRef.ts -->
<g id="edge53" class="edge">
<title>factory.ts&#45;&gt;props/propRef.ts</title>
<path fill="none" stroke="#757575" d="M523.61,-1331.24C527,-1275.51 545.1,-1047.2 593,-999.31 677.35,-914.96 825.42,-907.73 912.13,-914.63"/>
<polygon fill="#757575" stroke="#757575" points="911.64,-918.1 921.92,-915.51 912.27,-911.13 911.64,-918.1"/>
</g>
<!-- factory.ts&#45;&gt;response.ts -->
<g id="edge56" class="edge">
<title>factory.ts&#45;&gt;response.ts</title>
<path fill="none" stroke="#757575" d="M526.53,-1355.41C536.85,-1396.64 567.83,-1528.43 593,-1564.31 635.17,-1624.41 679.6,-1605.8 725.25,-1663.31 750,-1694.48 732.86,-1717.41 761.25,-1745.31 769.63,-1753.54 781.01,-1759.32 791.73,-1763.84"/>
<polygon fill="#757575" stroke="#757575" points="790.12,-1766.97 800.7,-1767.43 792.72,-1760.47 790.12,-1766.97"/>
</g>
<!-- scalar.ts -->
<g id="node22" class="node">
<title>scalar.ts</title>
<path fill="none" stroke="#ff6c60" d="M683.96,-1968.18C683.96,-1968.18 634.29,-1968.18 634.29,-1968.18 630.33,-1968.18 626.38,-1964.22 626.38,-1960.26 626.38,-1960.26 626.38,-1952.35 626.38,-1952.35 626.38,-1948.39 630.33,-1944.43 634.29,-1944.43 634.29,-1944.43 683.96,-1944.43 683.96,-1944.43 687.92,-1944.43 691.88,-1948.39 691.88,-1952.35 691.88,-1952.35 691.88,-1960.26 691.88,-1960.26 691.88,-1964.22 687.92,-1968.18 683.96,-1968.18"/>
<text text-anchor="middle" x="659.12" y="-1950.88" font-family="Arial" font-size="14.00" fill="#ff6c60">scalar.ts</text>
</g>
<!-- factory.ts&#45;&gt;scalar.ts -->
<g id="edge57" class="edge">
<title>factory.ts&#45;&gt;scalar.ts</title>
<path fill="none" stroke="#757575" d="M524,-1355.19C530.48,-1431.17 566.97,-1847.33 593,-1897.31 601.34,-1913.31 615.87,-1927.12 629.1,-1937.35"/>
<polygon fill="#757575" stroke="#757575" points="627.03,-1940.17 637.17,-1943.25 631.17,-1934.52 627.03,-1940.17"/>
</g>
<!-- arr.ts&#45;&gt;../io/writer.ts -->
<g id="edge21" class="edge">
<title>arr.ts&#45;&gt;../io/writer.ts</title>
<path fill="none" stroke="#757575" d="M1337.68,-1640.54C1311.2,-1699.14 1191.08,-1955.23 1040,-2126.31 837.94,-2355.11 729.38,-2430.31 424.12,-2430.31 303.38,-2430.31 303.38,-2430.31 303.38,-2430.31 216.62,-2430.31 174.13,-2424.12 124,-2353.31 54.58,-2255.25 46.07,-1351.4 45.11,-1194.48"/>
<polygon fill="#757575" stroke="#757575" points="48.62,-1194.89 45.06,-1184.91 41.62,-1194.93 48.62,-1194.89"/>
</g>
<!-- arr.ts&#45;&gt;../oasContext.ts -->
<g id="edge23" class="edge">
<title>arr.ts&#45;&gt;../oasContext.ts</title>
<path fill="none" stroke="#757575" d="M1316.71,-1636.87C1310.07,-1639.32 1303.05,-1642.19 1296.75,-1645.31 1279.74,-1653.73 1277.41,-1659.2 1260.75,-1668.31 985.44,-1818.77 882.86,-2017.37 593,-1897.31 572.09,-1888.65 573.23,-1877.07 557,-1861.31 526.32,-1831.52 515.33,-1827.33 487,-1795.31 469.1,-1775.07 470.44,-1765.07 451,-1746.31 429.43,-1725.48 411.78,-1733.32 395.25,-1708.31 347.26,-1635.69 316.13,-1360.84 307.69,-1278.05"/>
<polygon fill="#757575" stroke="#757575" points="311.18,-1277.78 306.7,-1268.18 304.22,-1278.47 311.18,-1277.78"/>
</g>
<!-- arr.ts&#45;&gt;type.ts -->
<g id="edge25" class="edge">
<title>arr.ts&#45;&gt;type.ts</title>
<path fill="none" stroke="#757575" d="M1316.78,-1621.41C1200.73,-1590.93 734.67,-1467.52 593,-1414.31 544.24,-1395.99 520.47,-1404.22 487,-1364.31 435.24,-1302.6 425.82,-1201.95 424.29,-1156.67"/>
<polygon fill="#757575" stroke="#757575" points="427.8,-1156.88 424.07,-1146.96 420.8,-1157.04 427.8,-1156.88"/>
</g>
<!-- arr.ts&#45;&gt;../log/trace.ts -->
<g id="edge22" class="edge">
<title>arr.ts&#45;&gt;../log/trace.ts</title>
<path fill="none" stroke="#757575" d="M1371.34,-1616.43C1389.9,-1608.02 1415.06,-1596.62 1435.73,-1587.25"/>
<polygon fill="#757575" stroke="#757575" points="1437.02,-1590.51 1444.69,-1583.19 1434.13,-1584.13 1437.02,-1590.51"/>
</g>
<!-- arr.ts&#45;&gt;factory.ts -->
<g id="edge24" class="edge">
<title>arr.ts&#45;&gt;factory.ts</title>
<path fill="none" stroke="#757575" d="M1316.84,-1629.28C1215.89,-1624.84 846.12,-1578.52 593,-1423.31 568.83,-1408.49 546.94,-1383.57 534.3,-1365.19"/>
<polygon fill="#757575" stroke="#757575" points="537.27,-1363.33 528.94,-1356.77 531.36,-1367.09 537.27,-1363.33"/>
</g>
<!-- ref.ts&#45;&gt;../io/writer.ts -->
<g id="edge117" class="edge">
<title>ref.ts&#45;&gt;../io/writer.ts</title>
<path fill="none" stroke="#757575" d="M1229.18,-1421.44C1203.31,-1509.39 1045.43,-2045.69 1040,-2052.31 853.09,-2280.21 718.88,-2298.31 424.12,-2298.31 303.38,-2298.31 303.38,-2298.31 303.38,-2298.31 189.8,-2298.31 171.42,-2219.5 124,-2116.31 45.24,-1944.93 44.18,-1323.35 44.83,-1194.71"/>
<polygon fill="#757575" stroke="#757575" points="48.32,-1195.06 44.88,-1185.04 41.32,-1195.02 48.32,-1195.06"/>
</g>
<!-- ref.ts&#45;&gt;../oasContext.ts -->
<g id="edge119" class="edge">
<title>ref.ts&#45;&gt;../oasContext.ts</title>
<path fill="none" stroke="#757575" d="M1212.32,-1421.6C1210.36,-1423.09 1208.47,-1424.67 1206.75,-1426.31 1186.96,-1445.23 1192.12,-1459.18 1170.75,-1476.31 1121.42,-1515.85 1100.22,-1513.09 1040,-1532.31 849.94,-1592.95 786.1,-1623.43 593,-1573.31 488.27,-1546.12 460.96,-1517.27 395.25,-1431.31 356.89,-1381.12 327.39,-1312.07 313.73,-1276.89"/>
<polygon fill="#757575" stroke="#757575" points="317.07,-1275.85 310.25,-1267.75 310.53,-1278.34 317.07,-1275.85"/>
</g>
<!-- ref.ts&#45;&gt;props/prop.ts -->
<g id="edge122" class="edge">
<title>ref.ts&#45;&gt;props/prop.ts</title>
<path fill="none" stroke="#757575" d="M1238.11,-1397.3C1253.38,-1342.8 1316.28,-1118.16 1336.7,-1045.27"/>
<polygon fill="#757575" stroke="#757575" points="1339.96,-1046.59 1339.29,-1036.01 1333.22,-1044.7 1339.96,-1046.59"/>
</g>
<!-- ref.ts&#45;&gt;type.ts -->
<g id="edge123" class="edge">
<title>ref.ts&#45;&gt;type.ts</title>
<path fill="none" stroke="#757575" d="M1206.62,-1400.39C1088.27,-1359.99 602.23,-1194.1 462.1,-1146.27"/>
<polygon fill="#757575" stroke="#757575" points="463.52,-1143.05 452.93,-1143.14 461.26,-1149.68 463.52,-1143.05"/>
</g>
<!-- ref.ts&#45;&gt;../log/trace.ts -->
<g id="edge118" class="edge">
<title>ref.ts&#45;&gt;../log/trace.ts</title>
<path fill="none" stroke="#757575" d="M1253.06,-1421.67C1294.67,-1449.78 1396.55,-1518.59 1445.71,-1551.79"/>
<polygon fill="#757575" stroke="#757575" points="1443.58,-1554.57 1453.83,-1557.27 1447.5,-1548.77 1443.58,-1554.57"/>
</g>
<!-- ref.ts&#45;&gt;factory.ts -->
<g id="edge121" class="edge">
<title>ref.ts&#45;&gt;factory.ts</title>
<path fill="none" stroke="#757575" d="M1206.48,-1414.74C1160.93,-1418.31 1064.35,-1418.31 982.75,-1418.31 823.38,-1418.31 823.38,-1418.31 823.38,-1418.31 719.94,-1418.31 692.07,-1415.02 593,-1385.31 575.16,-1379.95 556.11,-1370.72 542.39,-1361.95"/>
<polygon fill="#757575" stroke="#757575" points="544.49,-1359.14 534.29,-1356.27 540.47,-1364.88 544.49,-1359.14"/>
</g>
<!-- ref.ts&#45;&gt;arr.ts -->
<g id="edge120" class="edge">
<title>ref.ts&#45;&gt;arr.ts</title>
<path fill="none" stroke="#757575" d="M1240.73,-1421.39C1258.19,-1456.68 1309.31,-1559.97 1332.02,-1605.87"/>
<polygon fill="#757575" stroke="#757575" points="1328.79,-1607.22 1336.36,-1614.63 1335.06,-1604.12 1328.79,-1607.22"/>
</g>
<!-- en.ts&#45;&gt;../io/writer.ts -->
<g id="edge37" class="edge">
<title>en.ts&#45;&gt;../io/writer.ts</title>
<path fill="none" stroke="#757575" d="M631.81,-207.93C588.5,-207.36 499.49,-206.31 424.12,-206.31 303.38,-206.31 303.38,-206.31 303.38,-206.31 222.94,-206.31 179.46,-172.05 124,-230.31 58.78,-298.82 46.95,-1008.62 45.25,-1147.73"/>
<polygon fill="#757575" stroke="#757575" points="41.75,-1147.5 45.14,-1157.54 48.75,-1147.58 41.75,-1147.5"/>
</g>
<!-- en.ts&#45;&gt;../oasContext.ts -->
<g id="edge39" class="edge">
<title>en.ts&#45;&gt;../oasContext.ts</title>
<path fill="none" stroke="#757575" d="M631.72,-215.25C619.16,-219.41 604.43,-225.61 593,-234.31 477.44,-322.19 449.64,-359.7 395.25,-494.31 339.06,-633.39 312.07,-1118.38 306.49,-1230.88"/>
<polygon fill="#757575" stroke="#757575" points="303,-1230.51 306.01,-1240.67 309.99,-1230.85 303,-1230.51"/>
</g>
<!-- en.ts&#45;&gt;type.ts -->
<g id="edge40" class="edge">
<title>en.ts&#45;&gt;type.ts</title>
<path fill="none" stroke="#757575" d="M650.12,-220.39C636.51,-241.45 608.78,-286.63 593,-328.31 567.8,-394.85 576.78,-415.96 557,-484.31 530.82,-574.77 509.19,-592.78 487,-684.31 448.23,-844.2 430.85,-1042.33 425.78,-1109.65"/>
<polygon fill="#757575" stroke="#757575" points="422.3,-1109.26 425.06,-1119.49 429.28,-1109.77 422.3,-1109.26"/>
</g>
<!-- en.ts&#45;&gt;../log/trace.ts -->
<g id="edge38" class="edge">
<title>en.ts&#45;&gt;../log/trace.ts</title>
<path fill="none" stroke="#757575" d="M686.31,-208.17C741,-207.9 871.37,-207.31 980.75,-207.31 980.75,-207.31 980.75,-207.31 1234.75,-207.31 1412.93,-207.31 1348.83,-403.31 1391.5,-576.31 1439.05,-769.1 1466.92,-1414.33 1472.2,-1546.52"/>
<polygon fill="#757575" stroke="#757575" points="1468.7,-1546.62 1472.6,-1556.47 1475.7,-1546.34 1468.7,-1546.62"/>
</g>
<!-- props/propObj.ts&#45;&gt;../io/writer.ts -->
<g id="edge92" class="edge">
<title>props/propObj.ts&#45;&gt;../io/writer.ts</title>
<path fill="none" stroke="#757575" d="M975.79,-1158.1C964.57,-1132.32 934.48,-1072.77 887.5,-1049.31 822.98,-1017.08 797.37,-1047.75 725.25,-1047.31 666.47,-1046.94 651.75,-1045.64 593,-1047.31 545.83,-1048.64 533.59,-1045.85 487,-1053.31 340.19,-1076.8 171.75,-1129.03 91.81,-1155.41"/>
<polygon fill="#757575" stroke="#757575" points="90.95,-1152.01 82.56,-1158.48 93.16,-1158.65 90.95,-1152.01"/>
</g>
<!-- props/propObj.ts&#45;&gt;../oasContext.ts -->
<g id="edge94" class="edge">
<title>props/propObj.ts&#45;&gt;../oasContext.ts</title>
<path fill="none" stroke="#757575" d="M923.25,-1175.82C818.16,-1186.15 588.12,-1209.96 395.25,-1238.31 387.27,-1239.48 378.92,-1240.82 370.65,-1242.21"/>
<polygon fill="#757575" stroke="#757575" points="370.22,-1238.73 360.96,-1243.87 371.41,-1245.63 370.22,-1238.73"/>
</g>
<!-- props/propObj.ts&#45;&gt;comp.ts -->
<g id="edge95" class="edge">
<title>props/propObj.ts&#45;&gt;comp.ts</title>
<path fill="none" stroke="#757575" d="M986.34,-1157.98C1004.97,-1094.06 1090.72,-799.9 1115.59,-714.57"/>
<polygon fill="#757575" stroke="#757575" points="1118.95,-715.58 1118.38,-705 1112.22,-713.62 1118.95,-715.58"/>
</g>
<!-- props/propObj.ts&#45;&gt;obj.ts -->
<g id="edge96" class="edge">
<title>props/propObj.ts&#45;&gt;obj.ts</title>
<path fill="none" stroke="#757575" d="M979.09,-1182.66C971.41,-1237.95 937.55,-1462.01 887.5,-1508.31 835.58,-1556.33 747.66,-1559.13 697.73,-1556.18"/>
<polygon fill="#757575" stroke="#757575" points="698.22,-1552.71 688,-1555.49 697.72,-1559.69 698.22,-1552.71"/>
</g>
<!-- props/propObj.ts&#45;&gt;props/prop.ts -->
<g id="edge97" class="edge">
<title>props/propObj.ts&#45;&gt;props/prop.ts</title>
<path fill="none" stroke="#757575" d="M1026.24,-1158.03C1081.91,-1141.63 1180.73,-1110.19 1260.75,-1072.31 1279.85,-1063.26 1300.16,-1050.97 1315.83,-1040.83"/>
<polygon fill="#757575" stroke="#757575" points="1317.71,-1043.79 1324.14,-1035.37 1313.86,-1037.94 1317.71,-1043.79"/>
</g>
<!-- props/propObj.ts&#45;&gt;type.ts -->
<g id="edge98" class="edge">
<title>props/propObj.ts&#45;&gt;type.ts</title>
<path fill="none" stroke="#757575" d="M923.12,-1162.21C911.35,-1160.75 899.04,-1159.36 887.5,-1158.31 730.29,-1143.97 542.28,-1136.93 462.71,-1134.42"/>
<polygon fill="#757575" stroke="#757575" points="462.95,-1130.93 452.85,-1134.12 462.73,-1137.92 462.95,-1130.93"/>
</g>
<!-- props/propObj.ts&#45;&gt;union.ts -->
<g id="edge99" class="edge">
<title>props/propObj.ts&#45;&gt;union.ts</title>
<path fill="none" stroke="#757575" d="M991.91,-1158.1C1015.24,-1127.02 1077.12,-1044.6 1106.48,-1005.48"/>
<polygon fill="#757575" stroke="#757575" points="1109.25,-1007.62 1112.45,-997.52 1103.65,-1003.42 1109.25,-1007.62"/>
</g>
<!-- props/propObj.ts&#45;&gt;../log/trace.ts -->
<g id="edge93" class="edge">
<title>props/propObj.ts&#45;&gt;../log/trace.ts</title>
<path fill="none" stroke="#757575" d="M1040.16,-1180.41C1127.66,-1198.71 1294.44,-1245.41 1391.5,-1348.31 1445.73,-1405.8 1464.55,-1502.31 1470.56,-1546.69"/>
<polygon fill="#757575" stroke="#757575" points="1467.07,-1546.99 1471.77,-1556.48 1474.01,-1546.13 1467.07,-1546.99"/>
</g>
<!-- props/propRef.ts&#45;&gt;../io/writer.ts -->
<g id="edge100" class="edge">
<title>props/propRef.ts&#45;&gt;../io/writer.ts</title>
<path fill="none" stroke="#757575" d="M976.19,-914.97C959.08,-868.7 899.06,-707.08 887.5,-685.31 754.19,-434.19 708.43,-244.31 424.12,-244.31 303.38,-244.31 303.38,-244.31 303.38,-244.31 219.02,-244.31 176.02,-239.91 124,-306.31 70.62,-374.45 49.44,-1016.18 45.64,-1147.79"/>
<polygon fill="#757575" stroke="#757575" points="42.15,-1147.59 45.36,-1157.69 49.15,-1147.79 42.15,-1147.59"/>
</g>
<!-- props/propRef.ts&#45;&gt;../oasContext.ts -->
<g id="edge102" class="edge">
<title>props/propRef.ts&#45;&gt;../oasContext.ts</title>
<path fill="none" stroke="#757575" d="M971.99,-915.27C915.46,-838.99 598.25,-431.6 395.25,-608.31 347.09,-650.23 314.03,-1119.77 306.84,-1230.85"/>
<polygon fill="#757575" stroke="#757575" points="303.37,-1230.34 306.22,-1240.54 310.35,-1230.79 303.37,-1230.34"/>
</g>
<!-- props/propRef.ts&#45;&gt;circularRef.ts -->
<g id="edge104" class="edge">
<title>props/propRef.ts&#45;&gt;circularRef.ts</title>
<path fill="none" stroke="#757575" d="M985.48,-915.14C1002.49,-839.24 1094.09,-430.53 1117.12,-327.77"/>
<polygon fill="#757575" stroke="#757575" points="1120.53,-328.55 1119.3,-318.03 1113.7,-327.02 1120.53,-328.55"/>
</g>
<!-- props/propRef.ts&#45;&gt;comp.ts -->
<g id="edge105" class="edge">
<title>props/propRef.ts&#45;&gt;comp.ts</title>
<path fill="none" stroke="#757575" d="M990.06,-914.95C1012.49,-877.04 1080.56,-761.99 1109.32,-713.37"/>
<polygon fill="#757575" stroke="#757575" points="1112.29,-715.23 1114.37,-704.84 1106.26,-711.67 1112.29,-715.23"/>
</g>
<!-- props/propRef.ts&#45;&gt;obj.ts -->
<g id="edge107" class="edge">
<title>props/propRef.ts&#45;&gt;obj.ts</title>
<path fill="none" stroke="#757575" d="M974.45,-939.59C935.11,-1016.28 723.21,-1429.34 671.51,-1530.12"/>
<polygon fill="#757575" stroke="#757575" points="668.53,-1528.26 667.08,-1538.76 674.76,-1531.46 668.53,-1528.26"/>
</g>
<!-- props/propRef.ts&#45;&gt;props/prop.ts -->
<g id="edge108" class="edge">
<title>props/propRef.ts&#45;&gt;props/prop.ts</title>
<path fill="none" stroke="#757575" d="M1039.99,-936.12C1077.48,-942.41 1127.39,-951.8 1170.75,-963.31 1215.85,-975.28 1266.22,-993.05 1300.8,-1005.96"/>
<polygon fill="#757575" stroke="#757575" points="1299.44,-1009.18 1310.03,-1009.43 1301.91,-1002.63 1299.44,-1009.18"/>
</g>
<!-- props/propRef.ts&#45;&gt;type.ts -->
<g id="edge109" class="edge">
<title>props/propRef.ts&#45;&gt;type.ts</title>
<path fill="none" stroke="#757575" d="M960.24,-914.94C901.9,-881.41 730.43,-794.13 593,-838.31 537.81,-856.05 520.41,-866.93 487,-914.31 443.63,-975.82 429.99,-1066.87 425.85,-1109.57"/>
<polygon fill="#757575" stroke="#757575" points="422.37,-1109.19 425,-1119.45 429.35,-1109.79 422.37,-1109.19"/>
</g>
<!-- props/propRef.ts&#45;&gt;union.ts -->
<g id="edge110" class="edge">
<title>props/propRef.ts&#45;&gt;union.ts</title>
<path fill="none" stroke="#757575" d="M1013.05,-939.67C1033.08,-947.85 1059.59,-958.68 1081.49,-967.61"/>
<polygon fill="#757575" stroke="#757575" points="1080.16,-970.85 1090.74,-971.39 1082.8,-964.37 1080.16,-970.85"/>
</g>
<!-- props/propRef.ts&#45;&gt;../log/trace.ts -->
<g id="edge101" class="edge">
<title>props/propRef.ts&#45;&gt;../log/trace.ts</title>
<path fill="none" stroke="#757575" d="M1025.85,-914.99C1108.96,-894.14 1291.96,-862.89 1391.5,-958.31 1434.91,-999.92 1464.93,-1438.73 1471.68,-1546.51"/>
<polygon fill="#757575" stroke="#757575" points="1468.19,-1546.68 1472.3,-1556.45 1475.17,-1546.25 1468.19,-1546.68"/>
</g>
<!-- props/propRef.ts&#45;&gt;factory.ts -->
<g id="edge106" class="edge">
<title>props/propRef.ts&#45;&gt;factory.ts</title>
<path fill="none" stroke="#757575" d="M923.42,-927.25C838.84,-925.23 681.14,-929.17 593,-1017.31 549.59,-1060.71 530.65,-1252.31 524.96,-1319.85"/>
<polygon fill="#757575" stroke="#757575" points="521.5,-1319.2 524.17,-1329.45 528.48,-1319.77 521.5,-1319.2"/>
</g>
<!-- props/propRef.ts&#45;&gt;arr.ts -->
<g id="edge103" class="edge">
<title>props/propRef.ts&#45;&gt;arr.ts</title>
<path fill="none" stroke="#757575" d="M991.52,-939.59C1028.38,-991.69 1173.01,-1200.29 1260.75,-1388.31 1296.43,-1464.77 1324.83,-1561.17 1336.87,-1604.87"/>
<polygon fill="#757575" stroke="#757575" points="1333.49,-1605.77 1339.49,-1614.5 1340.25,-1603.94 1333.49,-1605.77"/>
</g>
<!-- response.ts&#45;&gt;../io/writer.ts -->
<g id="edge124" class="edge">
<title>response.ts&#45;&gt;../io/writer.ts</title>
<path fill="none" stroke="#757575" d="M820.26,-1792.57C811.14,-1826.22 781.56,-1921.22 725.25,-1977.31 673.42,-2028.93 497.28,-2110.31 424.12,-2110.31 303.38,-2110.31 303.38,-2110.31 303.38,-2110.31 189.17,-2110.31 167.35,-2031.97 124,-1926.31 67.59,-1788.79 49.25,-1307.49 45.69,-1194.96"/>
<polygon fill="#757575" stroke="#757575" points="49.2,-1195.04 45.39,-1185.15 42.2,-1195.25 49.2,-1195.04"/>
</g>
<!-- response.ts&#45;&gt;../oasContext.ts -->
<g id="edge126" class="edge">
<title>response.ts&#45;&gt;../oasContext.ts</title>
<path fill="none" stroke="#757575" d="M781.1,-1775.42C693.49,-1762.89 492.26,-1721.09 395.25,-1594.31 319.38,-1495.15 307.37,-1337.45 305.61,-1278.01"/>
<polygon fill="#757575" stroke="#757575" points="309.11,-1278.02 305.4,-1268.09 302.11,-1278.16 309.11,-1278.02"/>
</g>
<!-- response.ts&#45;&gt;type.ts -->
<g id="edge128" class="edge">
<title>response.ts&#45;&gt;type.ts</title>
<path fill="none" stroke="#757575" d="M782.8,-1767.94C730.62,-1749.89 641.03,-1711.2 593,-1646.31 557.84,-1598.81 593.87,-1564.49 557,-1518.31 534.91,-1490.64 507.75,-1508.99 487,-1480.31 449.16,-1428.01 431,-1226.42 425.77,-1156.98"/>
<polygon fill="#757575" stroke="#757575" points="429.27,-1156.84 425.05,-1147.12 422.29,-1157.35 429.27,-1156.84"/>
</g>
<!-- response.ts&#45;&gt;../log/trace.ts -->
<g id="edge125" class="edge">
<title>response.ts&#45;&gt;../log/trace.ts</title>
<path fill="none" stroke="#757575" d="M867.59,-1789.49C984.28,-1813.86 1308.1,-1874.35 1391.5,-1814.31 1463.52,-1762.46 1472.92,-1644.14 1473.51,-1593.74"/>
<polygon fill="#757575" stroke="#757575" points="1477.01,-1593.98 1473.51,-1583.99 1470.01,-1593.99 1477.01,-1593.98"/>
</g>
<!-- response.ts&#45;&gt;factory.ts -->
<g id="edge127" class="edge">
<title>response.ts&#45;&gt;factory.ts</title>
<path fill="none" stroke="#757575" d="M781.25,-1776.68C773.96,-1773.33 766.92,-1768.88 761.25,-1763.31 732.86,-1735.41 750,-1712.48 725.25,-1681.31 679.6,-1623.8 635.17,-1642.41 593,-1582.31 568.31,-1547.12 538.04,-1419.68 527.15,-1366.52"/>
<polygon fill="#757575" stroke="#757575" points="530.64,-1366.14 525.26,-1357.01 523.78,-1367.5 530.64,-1366.14"/>
</g>
<!-- scalar.ts&#45;&gt;../io/writer.ts -->
<g id="edge129" class="edge">
<title>scalar.ts&#45;&gt;../io/writer.ts</title>
<path fill="none" stroke="#757575" d="M645.03,-1968.28C611.21,-1997.92 517.08,-2072.31 424.12,-2072.31 303.38,-2072.31 303.38,-2072.31 303.38,-2072.31 152.2,-2072.31 174.69,-1925.73 124,-1783.31 46.18,-1564.65 43.49,-1277.78 44.51,-1194.75"/>
<polygon fill="#757575" stroke="#757575" points="48.01,-1194.98 44.67,-1184.92 41.01,-1194.87 48.01,-1194.98"/>
</g>
<!-- scalar.ts&#45;&gt;../oasContext.ts -->
<g id="edge131" class="edge">
<title>scalar.ts&#45;&gt;../oasContext.ts</title>
<path fill="none" stroke="#757575" d="M626,-1945.85C615.16,-1941.71 603.22,-1936.46 593,-1930.31 490.15,-1868.39 450.37,-1852.96 395.25,-1746.31 310.46,-1582.24 304.52,-1351.17 304.94,-1277.69"/>
<polygon fill="#757575" stroke="#757575" points="308.44,-1278.12 305.05,-1268.08 301.44,-1278.04 308.44,-1278.12"/>
</g>
<!-- scalar.ts&#45;&gt;type.ts -->
<g id="edge132" class="edge">
<title>scalar.ts&#45;&gt;type.ts</title>
<path fill="none" stroke="#757575" d="M640.48,-1944.08C626,-1933.25 605.85,-1916.25 593,-1897.31 517.38,-1785.8 519.51,-1744.05 487,-1613.31 444.23,-1441.31 429.26,-1226.98 425.31,-1156.76"/>
<polygon fill="#757575" stroke="#757575" points="428.81,-1156.68 424.78,-1146.88 421.82,-1157.05 428.81,-1156.68"/>
</g>
<!-- scalar.ts&#45;&gt;../log/trace.ts -->
<g id="edge130" class="edge">
<title>scalar.ts&#45;&gt;../log/trace.ts</title>
<path fill="none" stroke="#757575" d="M692.32,-1962C749.96,-1971.68 874.68,-1990.31 980.75,-1990.31 980.75,-1990.31 980.75,-1990.31 1234.75,-1990.31 1317.87,-1990.31 1343.03,-1955.83 1391.5,-1888.31 1458.86,-1794.46 1470.73,-1649.9 1472.74,-1593.74"/>
<polygon fill="#757575" stroke="#757575" points="1476.23,-1594.18 1473.01,-1584.09 1469.24,-1593.99 1476.23,-1594.18"/>
</g>
</g>
</svg>
